<svg width="164" height="164" viewBox="0 0 164 164" fill="none" xmlns="http://www.w3.org/2000/svg">
<circle opacity="0.5" cx="81.2407" cy="82.7593" r="72.1296" fill="#E8EAF6"/>
<path d="M54.7796 113.56L52.7713 116.324L54.7796 113.56ZM50.4403 109.22L47.6762 111.229H47.6762L50.4403 109.22ZM113.559 109.22L110.795 107.212L113.559 109.22ZM109.22 113.56L107.212 110.795L109.22 113.56ZM109.22 50.4404L107.212 53.2046L109.22 50.4404ZM113.559 54.7797L110.795 56.788L113.559 54.7797ZM54.7796 50.4404L56.7879 53.2046L54.7796 50.4404ZM50.4403 54.7797L53.2045 56.788L50.4403 54.7797ZM54.5535 112.726L51.1398 112.585L51.1369 112.655V112.726H54.5535ZM109.423 112.294L112.837 112.178L112.835 112.119L112.831 112.061L109.423 112.294ZM94.2746 70.2315C94.2746 77.0106 88.779 82.5062 81.9999 82.5062V89.3395C92.553 89.3395 101.108 80.7845 101.108 70.2315H94.2746ZM81.9999 82.5062C75.2208 82.5062 69.7252 77.0106 69.7252 70.2315H62.8919C62.8919 80.7845 71.4468 89.3395 81.9999 89.3395V82.5062ZM69.7252 70.2315C69.7252 63.4524 75.2208 57.9568 81.9999 57.9568V51.1235C71.4468 51.1235 62.8919 59.6784 62.8919 70.2315H69.7252ZM81.9999 57.9568C88.779 57.9568 94.2746 63.4524 94.2746 70.2315H101.108C101.108 59.6784 92.553 51.1235 81.9999 51.1235V57.9568ZM81.9999 113.889C74.569 113.889 69.2703 113.884 65.1751 113.441C61.1439 113.004 58.6863 112.175 56.7879 110.795L52.7713 116.324C56.0288 118.69 59.8265 119.734 64.4391 120.234C68.9877 120.727 74.7212 120.722 81.9999 120.722V113.889ZM43.2777 82C43.2777 89.2787 43.273 95.0122 43.7658 99.5608C44.2655 104.173 45.3095 107.971 47.6762 111.229L53.2045 107.212C51.8252 105.314 50.9961 102.856 50.5594 98.8248C50.1157 94.7296 50.111 89.4309 50.111 82H43.2777ZM113.889 82C113.889 89.4309 113.884 94.7296 113.44 98.8248C113.004 102.856 112.175 105.314 110.795 107.212L116.324 111.229C118.69 107.971 119.734 104.173 120.234 99.5608C120.727 95.0122 120.722 89.2787 120.722 82H113.889ZM81.9999 120.722C89.2786 120.722 95.012 120.727 99.5607 120.234C104.173 119.734 107.971 118.69 111.228 116.324L107.212 110.795C105.313 112.175 102.856 113.004 98.8247 113.441C94.7295 113.884 89.4308 113.889 81.9999 113.889V120.722ZM81.9999 50.1111C89.4308 50.1111 94.7295 50.1158 98.8247 50.5595C102.856 50.9962 105.313 51.8253 107.212 53.2046L111.228 47.6763C107.971 45.3096 104.173 44.2656 99.5607 43.7659C95.012 43.2731 89.2786 43.2778 81.9999 43.2778V50.1111ZM120.722 82C120.722 74.7213 120.727 68.9878 120.234 64.4392C119.734 59.8266 118.69 56.0289 116.324 52.7714L110.795 56.788C112.175 58.6864 113.004 61.144 113.44 65.1752C113.884 69.2704 113.889 74.5691 113.889 82H120.722ZM107.212 53.2046C108.587 54.2036 109.796 55.4129 110.795 56.788L116.324 52.7714C114.903 50.8162 113.184 49.0968 111.228 47.6763L107.212 53.2046ZM81.9999 43.2778C74.7212 43.2778 68.9877 43.2731 64.4391 43.7659C59.8265 44.2656 56.0288 45.3096 52.7713 47.6763L56.7879 53.2046C58.6863 51.8253 61.1439 50.9962 65.1751 50.5595C69.2703 50.1158 74.569 50.1111 81.9999 50.1111V43.2778ZM50.111 82C50.111 74.5691 50.1157 69.2704 50.5594 65.1752C50.9961 61.144 51.8252 58.6864 53.2045 56.788L47.6762 52.7714C45.3095 56.0289 44.2655 59.8266 43.7658 64.4392C43.273 68.9878 43.2777 74.7213 43.2777 82H50.111ZM52.7713 47.6763C50.8161 49.0968 49.0967 50.8162 47.6762 52.7714L53.2045 56.788C54.2035 55.4129 55.4128 54.2036 56.7879 53.2046L52.7713 47.6763ZM70.2314 101.108H93.7684V94.2747H70.2314V101.108ZM70.2314 94.2747C59.9455 94.2747 51.5593 102.401 51.1398 112.585L57.9673 112.866C58.2366 106.328 63.6253 101.108 70.2314 101.108V94.2747ZM56.7879 110.795C56.7253 110.75 56.6631 110.704 56.6012 110.658L52.5059 116.128C52.5938 116.194 52.6823 116.259 52.7713 116.324L56.7879 110.795ZM56.6012 110.658C55.3032 109.686 54.158 108.525 53.2045 107.212L47.6762 111.229C49.0321 113.095 50.6603 114.746 52.5059 116.128L56.6012 110.658ZM51.1369 112.726V113.393H57.9702V112.726H51.1369ZM93.7684 101.108C100.26 101.108 105.577 106.149 106.014 112.528L112.831 112.061C112.15 102.123 103.877 94.2747 93.7684 94.2747V101.108ZM110.795 107.212C109.844 108.521 108.703 109.679 107.41 110.649L111.51 116.116C113.349 114.737 114.972 113.089 116.324 111.229L110.795 107.212ZM107.41 110.649C107.344 110.699 107.278 110.747 107.212 110.795L111.228 116.324C111.323 116.255 111.417 116.186 111.51 116.116L107.41 110.649ZM106.008 112.411L106.045 113.499L112.874 113.266L112.837 112.178L106.008 112.411Z" fill="#536DFE"/>
</svg>
