<svg width="164" height="49" viewBox="0 0 164 49" fill="none" xmlns="http://www.w3.org/2000/svg">
<path d="M157.926 0.971852C159.279 0.971852 160.577 1.50941 161.534 2.46626C162.491 3.42311 163.028 4.72088 163.028 6.07407V42.5185C163.028 43.8717 162.491 45.1695 161.534 46.1263C160.577 47.0832 159.279 47.6207 157.926 47.6207H6.07407C4.72088 47.6207 3.42311 47.0832 2.46626 46.1263C1.50941 45.1695 0.971852 43.8717 0.971852 42.5185V6.07407C0.971852 4.72088 1.50941 3.42311 2.46626 2.46626C3.42311 1.50941 4.72088 0.971852 6.07407 0.971852H157.926ZM157.926 0H6.07407C4.46313 0 2.91816 0.639945 1.77906 1.77906C0.639945 2.91817 0 4.46313 0 6.07407V42.5185C0 44.1295 0.639945 45.6744 1.77906 46.8135C2.91816 47.9527 4.46313 48.5926 6.07407 48.5926H157.926C159.537 48.5926 161.082 47.9527 162.221 46.8135C163.36 45.6744 164 44.1295 164 42.5185V6.07407C164 4.46313 163.36 2.91817 162.221 1.77906C161.082 0.639945 159.537 0 157.926 0Z" fill="black"/>
<path d="M39.0112 23.4618C38.9776 19.7312 42.0658 17.9163 42.207 17.8318C40.4581 15.2818 37.7472 14.9334 36.7946 14.9057C34.5179 14.6661 32.3094 16.268 31.1496 16.268C29.9666 16.268 28.1806 14.9288 26.2558 14.9682C23.7787 15.0064 21.4615 16.4405 20.1905 18.6675C17.5677 23.2083 19.5238 29.8812 22.0367 33.5515C23.2938 35.3491 24.7626 37.3562 26.6852 37.2856C28.5661 37.208 29.2687 36.0864 31.5385 36.0864C33.7875 36.0864 34.4473 37.2856 36.408 37.2404C38.4267 37.208 39.6976 35.4348 40.9106 33.621C42.3633 31.5607 42.9467 29.5316 42.9698 29.4274C42.9224 29.4112 39.0494 27.9331 39.0112 23.4618Z" fill="black"/>
<path d="M35.3073 12.4911C36.3189 11.226 37.0111 9.50482 36.8189 7.75818C35.3547 7.823 33.5236 8.77098 32.4691 10.0083C31.5362 11.0987 30.7028 12.8858 30.9181 14.5665C32.5629 14.6892 34.2516 13.7366 35.3073 12.4911Z" fill="black"/>
<path d="M66.2314 37.0274H63.6028L62.1629 32.5028H57.1579L55.7863 37.0274H53.2271L58.1858 21.6236H61.2485L66.2314 37.0274ZM61.7288 30.6045L60.4267 26.5823C60.2889 26.1713 60.0308 25.2037 59.65 23.6804H59.6037C59.4521 24.3356 59.2078 25.3032 58.8722 26.5823L57.5931 30.6045H61.7288Z" fill="black"/>
<path d="M78.9831 31.3372C78.9831 33.2262 78.4727 34.7194 77.4518 35.8155C76.5374 36.7912 75.4019 37.2785 74.0465 37.2785C72.5834 37.2785 71.5324 36.753 70.8923 35.7021H70.846V41.5531H68.3783V29.5767C68.3783 28.3891 68.347 27.1702 68.2868 25.9202H70.4571L70.5949 27.6807H70.6412C71.4641 26.3542 72.713 25.6921 74.3891 25.6921C75.6994 25.6921 76.7932 26.2095 77.6682 27.2455C78.5456 28.2826 78.9831 29.6461 78.9831 31.3372ZM76.4691 31.4275C76.4691 30.3464 76.226 29.4551 75.7376 28.7537C75.204 28.0222 74.4875 27.6564 73.5893 27.6564C72.9804 27.6564 72.4271 27.8601 71.9329 28.2618C71.4375 28.6669 71.1134 29.1958 70.9618 29.851C70.8854 30.1566 70.8472 30.4066 70.8472 30.6033V32.4553C70.8472 33.2632 71.0949 33.945 71.5903 34.5017C72.0857 35.0585 72.7293 35.3363 73.521 35.3363C74.4504 35.3363 75.1739 34.9775 75.6913 34.2621C76.2098 33.5457 76.4691 32.6012 76.4691 31.4275Z" fill="black"/>
<path d="M91.7586 31.3372C91.7586 33.2262 91.2481 34.7194 90.2261 35.8155C89.3128 36.7912 88.1773 37.2785 86.8219 37.2785C85.3588 37.2785 84.3078 36.753 83.6689 35.7021H83.6226V41.5531H81.1549V29.5767C81.1549 28.3891 81.1236 27.1702 81.0634 25.9202H83.2337L83.3714 27.6807H83.4177C84.2395 26.3542 85.4885 25.6921 87.1657 25.6921C88.4748 25.6921 89.5686 26.2095 90.446 27.2455C91.3199 28.2826 91.7586 29.6461 91.7586 31.3372ZM89.2445 31.4275C89.2445 30.3464 89.0003 29.4551 88.5118 28.7537C87.9782 28.0222 87.2641 27.6564 86.3647 27.6564C85.7547 27.6564 85.2026 27.8601 84.7072 28.2618C84.2118 28.6669 83.8888 29.1958 83.7372 29.851C83.662 30.1566 83.6226 30.4066 83.6226 30.6033V32.4553C83.6226 33.2632 83.8703 33.945 84.3634 34.5017C84.8588 35.0573 85.5024 35.3363 86.2964 35.3363C87.2259 35.3363 87.9493 34.9775 88.4667 34.2621C88.9852 33.5457 89.2445 32.6012 89.2445 31.4275Z" fill="black"/>
<path d="M106.042 32.7077C106.042 34.018 105.587 35.084 104.674 35.907C103.67 36.8064 102.273 37.2555 100.478 37.2555C98.8205 37.2555 97.4917 36.936 96.4858 36.2959L97.0576 34.2391C98.141 34.8942 99.3298 35.2229 100.625 35.2229C101.554 35.2229 102.278 35.0123 102.798 34.5933C103.315 34.1742 103.573 33.6117 103.573 32.9103C103.573 32.2852 103.36 31.7586 102.933 31.3315C102.508 30.9044 101.799 30.5073 100.808 30.1404C98.1109 29.1346 96.7636 27.6611 96.7636 25.7235C96.7636 24.4572 97.2359 23.4189 98.1815 22.611C99.1237 21.8019 100.381 21.3979 101.953 21.3979C103.354 21.3979 104.519 21.6422 105.448 22.1295L104.831 24.1412C103.963 23.6689 102.982 23.4328 101.883 23.4328C101.015 23.4328 100.337 23.6469 99.8506 24.0729C99.4397 24.4537 99.2337 24.9179 99.2337 25.4677C99.2337 26.0765 99.4686 26.58 99.9409 26.9759C100.352 27.3416 101.098 27.7375 102.182 28.1646C103.507 28.6982 104.481 29.3221 105.107 30.0374C105.731 30.7504 106.042 31.6428 106.042 32.7077Z" fill="black"/>
<path d="M114.201 27.7722H111.481V33.1649C111.481 34.5366 111.96 35.2218 112.921 35.2218C113.362 35.2218 113.728 35.1836 114.017 35.1072L114.085 36.9812C113.599 37.1629 112.959 37.2543 112.166 37.2543C111.191 37.2543 110.43 36.9569 109.88 36.3631C109.333 35.7681 109.057 34.7704 109.057 33.3687V27.7699H107.437V25.9179H109.057V23.8842L111.481 23.1527V25.9179H114.201V27.7722Z" fill="black"/>
<path d="M126.474 31.3825C126.474 33.0897 125.985 34.4915 125.011 35.5876C123.989 36.7161 122.632 37.2787 120.941 37.2787C119.311 37.2787 118.014 36.7381 117.046 35.657C116.078 34.5759 115.595 33.2113 115.595 31.5665C115.595 29.8453 116.092 28.4355 117.091 27.3394C118.088 26.2421 119.433 25.6934 121.124 25.6934C122.754 25.6934 124.065 26.234 125.055 27.3162C126.002 28.3661 126.474 29.7215 126.474 31.3825ZM123.913 31.4623C123.913 30.4379 123.695 29.5594 123.251 28.8267C122.734 27.9401 121.994 27.4979 121.036 27.4979C120.044 27.4979 119.29 27.9413 118.773 28.8267C118.33 29.5606 118.111 30.453 118.111 31.5086C118.111 32.533 118.33 33.4115 118.773 34.143C119.307 35.0297 120.052 35.4718 121.014 35.4718C121.956 35.4718 122.696 35.0204 123.229 34.1199C123.684 33.3733 123.913 32.4855 123.913 31.4623Z" fill="black"/>
<path d="M134.495 28.0904C134.251 28.0453 133.99 28.0222 133.717 28.0222C132.849 28.0222 132.178 28.3497 131.705 29.006C131.294 29.5848 131.088 30.3163 131.088 31.1994V37.0274H128.622L128.645 29.4181C128.645 28.1379 128.614 26.9723 128.552 25.9213H130.702L130.792 28.0465H130.86C131.121 27.3161 131.532 26.7281 132.094 26.2871C132.644 25.8901 133.238 25.6921 133.878 25.6921C134.106 25.6921 134.312 25.7083 134.495 25.7373V28.0904Z" fill="black"/>
<path d="M145.532 30.9484C145.532 31.3905 145.503 31.7632 145.441 32.0676H138.038C138.067 33.1649 138.425 34.0041 139.112 34.5828C139.736 35.1002 140.543 35.3595 141.534 35.3595C142.63 35.3595 143.63 35.1847 144.529 34.834L144.916 36.5471C143.865 37.0055 142.624 37.2335 141.192 37.2335C139.47 37.2335 138.118 36.7265 137.134 35.7137C136.152 34.7009 135.661 33.3409 135.661 31.6347C135.661 29.9599 136.118 28.5651 137.033 27.4528C137.992 26.2652 139.287 25.6714 140.917 25.6714C142.517 25.6714 143.729 26.2652 144.552 27.4528C145.204 28.3961 145.532 29.5628 145.532 30.9484ZM143.178 30.3083C143.195 29.5767 143.034 28.9447 142.699 28.4111C142.272 27.7248 141.616 27.3821 140.733 27.3821C139.926 27.3821 139.27 27.7167 138.768 28.388C138.357 28.9216 138.113 29.5617 138.038 30.3071H143.178V30.3083Z" fill="black"/>
<path d="M50.8676 15.7344V8.86938H52.7865C53.3492 8.86938 53.8537 8.99826 54.3 9.25601C54.7464 9.51062 55.0937 9.87682 55.3421 10.3546C55.5935 10.8324 55.7193 11.3762 55.7193 11.986V12.6178C55.7193 13.2307 55.5951 13.7745 55.3468 14.2492C55.0984 14.7238 54.748 15.09 54.2953 15.3477C53.8458 15.6055 53.3288 15.7344 52.7441 15.7344H50.8676ZM51.4475 9.36446V15.244H52.7488C53.4718 15.244 54.0517 15.0051 54.4886 14.5273C54.9256 14.0464 55.144 13.3973 55.144 12.5801V11.9765C55.144 11.1876 54.9287 10.5558 54.4981 10.0811C54.0674 9.60649 53.5001 9.3676 52.796 9.36446H51.4475ZM57.9023 15.7344H57.3223V8.86938H57.9023V15.7344ZM63.6545 14.0464C63.6545 13.6661 63.521 13.3659 63.2538 13.1459C62.9866 12.9227 62.4978 12.7121 61.7874 12.5141C61.077 12.3129 60.5584 12.0944 60.2315 11.8587C59.7663 11.5255 59.5337 11.0886 59.5337 10.5479C59.5337 10.023 59.749 9.59706 60.1796 9.27016C60.6134 8.94011 61.1666 8.77509 61.8393 8.77509C62.2951 8.77509 62.7021 8.8631 63.0605 9.03912C63.4219 9.21515 63.7017 9.46033 63.8997 9.77466C64.0977 10.089 64.1968 10.4395 64.1968 10.8261H63.6121C63.6121 10.3577 63.4518 9.98212 63.1312 9.69922C62.8106 9.41318 62.3799 9.27016 61.8393 9.27016C61.3143 9.27016 60.8963 9.38803 60.5851 9.62378C60.2739 9.85638 60.1183 10.1613 60.1183 10.5385C60.1183 10.8874 60.2582 11.1719 60.5379 11.3919C60.8177 11.6119 61.2656 11.8068 61.8817 11.9765C62.4978 12.1431 62.9646 12.3176 63.2821 12.4999C63.5995 12.6791 63.8384 12.8944 63.9987 13.1459C64.159 13.3973 64.2392 13.6944 64.2392 14.037C64.2392 14.5776 64.0223 15.0114 63.5885 15.3383C63.1579 15.6652 62.589 15.8287 61.8817 15.8287C61.3976 15.8287 60.9529 15.7422 60.5474 15.5694C60.145 15.3965 59.8386 15.1544 59.628 14.8432C59.4205 14.5321 59.3168 14.1753 59.3168 13.7729H59.8967C59.8967 14.257 60.0775 14.6389 60.4389 14.9187C60.8004 15.1984 61.2813 15.3383 61.8817 15.3383C62.4161 15.3383 62.8451 15.2204 63.1689 14.9847C63.4927 14.7489 63.6545 14.4362 63.6545 14.0464ZM66.0733 12.9384V15.7344H65.4934V8.86938H67.832C68.5455 8.86938 69.1082 9.0517 69.52 9.41632C69.9349 9.78094 70.1423 10.2823 70.1423 10.9204C70.1423 11.5648 69.9427 12.063 69.5435 12.415C69.1475 12.7639 68.5723 12.9384 67.8179 12.9384H66.0733ZM66.0733 12.448H67.832C68.3947 12.448 68.8237 12.3145 69.1192 12.0473C69.4147 11.7801 69.5624 11.4076 69.5624 10.9298C69.5624 10.4552 69.4147 10.078 69.1192 9.79823C68.8269 9.51534 68.4104 9.37074 67.8697 9.36446H66.0733V12.448ZM76.517 12.6744C76.517 13.3062 76.407 13.861 76.1869 14.3387C75.97 14.8165 75.6588 15.1843 75.2534 15.442C74.8479 15.6998 74.3795 15.8287 73.8483 15.8287C73.0468 15.8287 72.3992 15.5426 71.9057 14.9706C71.4122 14.3953 71.1655 13.6205 71.1655 12.6461V11.9388C71.1655 11.3133 71.2755 10.7601 71.4955 10.2792C71.7187 9.79509 72.033 9.42418 72.4385 9.16643C72.844 8.90553 73.3108 8.77509 73.8389 8.77509C74.3669 8.77509 74.8322 8.90239 75.2345 9.157C75.64 9.41161 75.9527 9.77151 76.1728 10.2367C76.3928 10.7019 76.5075 11.241 76.517 11.854V12.6744ZM75.937 11.9294C75.937 11.1027 75.75 10.4552 75.3759 9.98683C75.0019 9.51848 74.4895 9.2843 73.8389 9.2843C73.2008 9.2843 72.6916 9.52005 72.3112 9.99155C71.934 10.4599 71.7454 11.1153 71.7454 11.9577V12.6744C71.7454 13.4885 71.934 14.1344 72.3112 14.6122C72.6884 15.0869 73.2008 15.3242 73.8483 15.3242C74.5052 15.3242 75.0176 15.09 75.3854 14.6216C75.7531 14.1501 75.937 13.4948 75.937 12.6555V11.9294ZM83.0896 15.7344H82.5097L78.5633 9.85953V15.7344H77.9786V8.86938H78.5633L82.5144 14.7489V8.86938H83.0896V15.7344ZM85.5414 15.7344H84.9615V8.86938H85.5414V15.7344ZM87.4085 15.7344V8.86938H89.436C90.1715 8.86938 90.7294 9.02184 91.1098 9.32674C91.4901 9.62849 91.6803 10.0748 91.6803 10.6658C91.6803 11.021 91.5829 11.3306 91.388 11.5946C91.1962 11.8555 90.9322 12.0426 90.5959 12.1557C90.9951 12.2437 91.3157 12.4402 91.5577 12.7451C91.8029 13.05 91.9255 13.402 91.9255 13.8012C91.9255 14.4079 91.729 14.8825 91.3361 15.2252C90.9463 15.5646 90.4025 15.7344 89.7047 15.7344H87.4085ZM87.9885 12.4339V15.244H89.7283C90.2249 15.244 90.6179 15.1183 90.907 14.8668C91.1994 14.6122 91.3455 14.2602 91.3455 13.8107C91.3455 13.3863 91.2057 13.0516 90.9259 12.8064C90.6493 12.5581 90.2658 12.4339 89.7755 12.4339H87.9885ZM87.9885 11.9483H89.5727C90.0568 11.9388 90.4308 11.8257 90.6949 11.6088C90.9621 11.3887 91.0956 11.0697 91.0956 10.6516C91.0956 10.2116 90.9573 9.88782 90.6807 9.68036C90.4073 9.46976 89.9923 9.36446 89.436 9.36446H87.9885V11.9483ZM93.9152 15.244H97.3053V15.7344H93.3305V8.86938H93.9152V15.244ZM102.214 12.4433H99.0026V15.244H102.694V15.7344H98.4227V8.86938H102.671V9.36446H99.0026V11.953H102.214V12.4433ZM110.059 12.4433H106.848V15.244H110.54V15.7344H106.268V8.86938H110.517V9.36446H106.848V11.953H110.059V12.4433ZM116.877 15.7344H116.297L112.351 9.85953V15.7344H111.766V8.86938H112.351L116.302 14.7489V8.86938H116.877V15.7344Z" fill="black"/>
</svg>
