<svg width="165" height="49" viewBox="0 0 165 49" fill="none" xmlns="http://www.w3.org/2000/svg">
<path d="M158.889 0.977778C160.25 0.977778 161.556 1.51861 162.519 2.4813C163.481 3.44398 164.022 4.74967 164.022 6.11111V42.7778C164.022 44.1392 163.481 45.4449 162.519 46.4076C161.556 47.3703 160.25 47.9111 158.889 47.9111H6.11111C4.74967 47.9111 3.44398 47.3703 2.4813 46.4076C1.51861 45.4449 0.977778 44.1392 0.977778 42.7778V6.11111C0.977778 4.74967 1.51861 3.44398 2.4813 2.4813C3.44398 1.51861 4.74967 0.977778 6.11111 0.977778H158.889ZM158.889 0H6.11111C4.49034 0 2.93596 0.643847 1.7899 1.7899C0.643847 2.93596 0 4.49034 0 6.11111V42.7778C0 44.3985 0.643847 45.9529 1.7899 47.099C2.93596 48.245 4.49034 48.8889 6.11111 48.8889H158.889C160.51 48.8889 162.064 48.245 163.21 47.099C164.356 45.9529 165 44.3985 165 42.7778V6.11111C165 4.49034 164.356 2.93596 163.21 1.7899C162.064 0.643847 160.51 0 158.889 0Z" fill="black"/>
<path d="M31.8273 26.409H16.752C15.6945 26.409 14.8395 27.264 14.8395 28.3215C14.8395 29.3791 15.6945 30.2341 16.752 30.2341H34.1224C34.1224 30.2341 35.0224 29.334 34.0549 27.8715C33.0648 26.409 31.8273 26.409 31.8273 26.409Z" fill="black"/>
<path d="M31.0623 10.3212L21.7021 26.5215C21.1846 27.4441 21.4771 28.6141 22.3997 29.1316C23.3222 29.6491 24.4922 29.3566 25.0097 28.4341L34.3699 12.2338C34.8874 11.3113 34.5949 10.1412 33.6724 9.62374C32.7498 9.08373 31.5798 9.39873 31.0623 10.3212Z" fill="black"/>
<path d="M42.515 33.4742L32.9073 16.8014C32.9073 16.8014 31.5123 17.8814 31.5123 20.019C31.5123 22.1565 32.3898 23.5965 32.3898 23.5965L39.2074 35.4092C39.7249 36.3318 40.895 36.6468 41.8175 36.1067C42.7175 35.5667 43.0325 34.3967 42.515 33.4742Z" fill="black"/>
<path d="M43.4826 26.409H38.15C37.0925 26.409 36.2375 27.264 36.2375 28.3215C36.2375 29.3791 37.0925 30.2341 38.15 30.2341H43.4826C44.5401 30.2341 45.3951 29.3791 45.3951 28.3215C45.3951 27.2865 44.5401 26.409 43.4826 26.409Z" fill="black"/>
<path d="M31.1749 13.8313L29.1498 10.2988C28.6323 9.39876 27.4398 9.08375 26.5398 9.60126C25.6398 10.1188 25.3247 11.3113 25.8423 12.2113L27.8673 15.7439C28.3848 16.6439 29.5773 16.9589 30.4773 16.4414C31.3774 15.9239 31.6924 14.7539 31.1749 13.8313Z" fill="black"/>
<path d="M17.6971 33.4517L18.9122 31.3592C18.9122 31.3592 19.2047 30.7742 20.3522 30.7742C21.5672 30.7742 22.7372 31.7867 22.8272 32.1692L21.0047 35.3643C20.4872 36.2868 19.3172 36.6018 18.3947 36.0618C17.4721 35.5443 17.1796 34.3742 17.6971 33.4517Z" fill="black"/>
<path d="M66.6353 37.253H63.9906L62.5419 32.7008H57.5064L56.1265 37.253H53.5517L58.5406 21.7553H61.6219L66.6353 37.253ZM62.1052 30.791L60.7951 26.7442C60.6565 26.3308 60.3968 25.3572 60.0137 23.8247H59.9671C59.8146 24.4838 59.5688 25.4574 59.2311 26.7442L57.9443 30.791H62.1052Z" fill="black"/>
<path d="M79.4647 31.5281C79.4647 33.4286 78.9512 34.9309 77.9241 36.0337C77.0041 37.0154 75.8616 37.5057 74.498 37.5057C73.026 37.5057 71.9686 36.977 71.3246 35.9196H71.278V41.8063H68.7952V29.7568C68.7952 28.562 68.7638 27.3358 68.7032 26.078H70.8867L71.0253 27.8493H71.0719C71.8999 26.5148 73.1564 25.8486 74.8427 25.8486C76.1609 25.8486 77.2614 26.3692 78.1418 27.4114C79.0245 28.4549 79.4647 29.8267 79.4647 31.5281ZM76.9354 31.6189C76.9354 30.5313 76.6908 29.6346 76.1994 28.9288C75.6625 28.1929 74.9417 27.8249 74.038 27.8249C73.4254 27.8249 72.8688 28.0298 72.3715 28.4339C71.8731 28.8415 71.547 29.3737 71.3945 30.0328C71.3176 30.3403 71.2792 30.5918 71.2792 30.7898V32.653C71.2792 33.4659 71.5284 34.1518 72.0268 34.712C72.5252 35.2721 73.1727 35.5516 73.9693 35.5516C74.9044 35.5516 75.6322 35.1906 76.1528 34.4709C76.6745 33.75 76.9354 32.7998 76.9354 31.6189Z" fill="black"/>
<path d="M92.3181 31.5281C92.3181 33.4286 91.8045 34.9309 90.7762 36.0337C89.8574 37.0154 88.715 37.5057 87.3513 37.5057C85.8793 37.5057 84.8219 36.977 84.1791 35.9196H84.1325V41.8063H81.6497V29.7568C81.6497 28.562 81.6183 27.3358 81.5577 26.078H83.7412L83.8798 27.8493H83.9264C84.7532 26.5148 86.0098 25.8486 87.6972 25.8486C89.0143 25.8486 90.1148 26.3692 90.9975 27.4114C91.8767 28.4549 92.3181 29.8267 92.3181 31.5281ZM89.7887 31.6189C89.7887 30.5313 89.543 29.6346 89.0515 28.9288C88.5147 28.1929 87.7962 27.8249 86.8913 27.8249C86.2776 27.8249 85.7221 28.0298 85.2237 28.4339C84.7253 28.8415 84.4004 29.3737 84.2478 30.0328C84.1721 30.3403 84.1325 30.5918 84.1325 30.7898V32.653C84.1325 33.4659 84.3817 34.1518 84.8778 34.712C85.3762 35.2709 86.0237 35.5516 86.8226 35.5516C87.7577 35.5516 88.4856 35.1906 89.0061 34.4709C89.5278 33.75 89.7887 32.7998 89.7887 31.6189Z" fill="black"/>
<path d="M106.689 32.907C106.689 34.2252 106.231 35.2978 105.312 36.1258C104.302 37.0306 102.897 37.4825 101.091 37.4825C99.423 37.4825 98.0861 37.1611 97.0741 36.5171L97.6494 34.4477C98.7394 35.1068 99.9354 35.4375 101.239 35.4375C102.174 35.4375 102.901 35.2256 103.424 34.804C103.945 34.3825 104.205 33.8165 104.205 33.1108C104.205 32.4819 103.99 31.9521 103.561 31.5224C103.133 31.0926 102.419 30.6932 101.423 30.324C98.7091 29.3121 97.3536 27.8296 97.3536 25.8802C97.3536 24.6061 97.8288 23.5615 98.7802 22.7487C99.7281 21.9347 100.993 21.5283 102.574 21.5283C103.985 21.5283 105.156 21.774 106.091 22.2642L105.47 24.2882C104.597 23.8131 103.61 23.5755 102.504 23.5755C101.631 23.5755 100.949 23.791 100.459 24.2195C100.046 24.6026 99.8387 25.0696 99.8387 25.6228C99.8387 26.2353 100.075 26.7419 100.55 27.1402C100.964 27.5082 101.715 27.9065 102.805 28.3362C104.138 28.873 105.118 29.5007 105.748 30.2204C106.375 30.9378 106.689 31.8356 106.689 32.907Z" fill="black"/>
<path d="M114.897 27.9414H112.161V33.367C112.161 34.747 112.643 35.4364 113.609 35.4364C114.053 35.4364 114.421 35.3979 114.712 35.3211L114.781 37.2065C114.292 37.3893 113.648 37.4813 112.85 37.4813C111.869 37.4813 111.103 37.182 110.55 36.5846C109.999 35.986 109.722 34.9822 109.722 33.5719V27.9391H108.092V26.0758H109.722V24.0297L112.161 23.2937V26.0758H114.897V27.9414Z" fill="black"/>
<path d="M127.245 31.5736C127.245 33.2913 126.754 34.7016 125.773 35.8044C124.745 36.9398 123.38 37.5058 121.678 37.5058C120.039 37.5058 118.733 36.962 117.76 35.8743C116.786 34.7866 116.299 33.4136 116.299 31.7588C116.299 30.0271 116.8 28.6087 117.805 27.5059C118.808 26.4019 120.161 25.8499 121.862 25.8499C123.502 25.8499 124.822 26.3938 125.817 27.4826C126.77 28.5388 127.245 29.9025 127.245 31.5736ZM124.669 31.654C124.669 30.6234 124.449 29.7395 124.003 29.0023C123.482 28.1103 122.738 27.6654 121.774 27.6654C120.776 27.6654 120.018 28.1115 119.497 29.0023C119.051 29.7406 118.831 30.6385 118.831 31.7006C118.831 32.7312 119.051 33.6151 119.497 34.3511C120.034 35.2431 120.784 35.688 121.752 35.688C122.7 35.688 123.444 35.2338 123.981 34.3278C124.438 33.5766 124.669 32.6834 124.669 31.654Z" fill="black"/>
<path d="M135.315 28.2616C135.069 28.2161 134.807 28.1929 134.532 28.1929C133.659 28.1929 132.984 28.5224 132.508 29.1827C132.095 29.765 131.888 30.501 131.888 31.3895V37.253H129.406L129.429 29.5973C129.429 28.3093 129.398 27.1366 129.336 26.0792H131.499L131.59 28.2173H131.658C131.92 27.4825 132.334 26.8909 132.9 26.4472C133.453 26.0478 134.05 25.8486 134.694 25.8486C134.924 25.8486 135.131 25.8649 135.315 25.894V28.2616Z" fill="black"/>
<path d="M146.419 31.1369C146.419 31.5818 146.39 31.9567 146.328 32.263H138.88C138.909 33.367 139.269 34.2113 139.96 34.7936C140.588 35.3141 141.4 35.575 142.397 35.575C143.499 35.575 144.506 35.3991 145.41 35.0463L145.799 36.7698C144.742 37.2309 143.494 37.4604 142.053 37.4604C140.32 37.4604 138.96 36.9503 137.97 35.9313C136.983 34.9123 136.488 33.544 136.488 31.8275C136.488 30.1424 136.948 28.7391 137.869 27.62C138.833 26.4252 140.136 25.8278 141.776 25.8278C143.386 25.8278 144.606 26.4252 145.434 27.62C146.089 28.5691 146.419 29.7429 146.419 31.1369ZM144.051 30.4929C144.068 29.7569 143.906 29.1211 143.569 28.5842C143.14 27.8937 142.479 27.5489 141.591 27.5489C140.779 27.5489 140.119 27.8855 139.615 28.5609C139.201 29.0978 138.955 29.7418 138.88 30.4917H144.051V30.4929Z" fill="black"/>
</svg>
