<svg width="108" height="108" viewBox="0 0 108 108" fill="none" xmlns="http://www.w3.org/2000/svg">
<circle opacity="0.5" cx="53.5" cy="54.5" r="47.5" fill="#E8EAF6"/>
<path d="M39.0901 44.8401L40.6811 43.2491L39.0901 44.8401ZM34.75 40.5L36.341 38.909L36.341 38.909L34.75 40.5ZM37.1374 72.1014L38.4599 70.2812H38.4599L37.1374 72.1014ZM34.6486 69.6126L32.8283 70.9351H32.8283L34.6486 69.6126ZM75.3514 69.6126L73.5312 68.2901V68.2901L75.3514 69.6126ZM72.8626 72.1014L71.5401 70.2812L72.8626 72.1014ZM37.1374 35.8986L35.8149 34.0783L35.8149 34.0783L37.1374 35.8986ZM34.6486 38.3874L32.8283 37.0649L32.8283 37.0649L34.6486 38.3874ZM67.807 51.0666C68.704 50.2067 68.7342 48.7824 67.8743 47.8854C67.0144 46.9883 65.5901 46.9582 64.693 47.818L67.807 51.0666ZM79.7329 49.4145C79.7175 48.172 78.6978 47.1771 77.4553 47.1925C76.2127 47.2079 75.2179 48.2276 75.2333 49.4702L79.7329 49.4145ZM61.723 36.0161C62.9656 36.0309 63.9849 35.0357 63.9998 33.7932C64.0147 32.5506 63.0195 31.5313 61.777 31.5164L61.723 36.0161ZM33.8973 39.6473L31.8704 38.6706L33.8973 39.6473ZM40.6811 43.2491L36.341 38.909L33.159 42.091L37.4991 46.4311L40.6811 43.2491ZM37.4991 46.4311C41.2041 50.1361 44.1396 53.0783 46.7453 55.0664C49.4029 57.0941 51.9803 58.3401 55 58.3401V53.8401C53.3598 53.8401 51.7322 53.2111 49.4749 51.4888C47.1656 49.7269 44.4761 47.0441 40.6811 43.2491L37.4991 46.4311ZM52.75 36H57.25V31.5H52.75V36ZM57.25 72H52.75V76.5H57.25V72ZM52.75 72C48.4814 72 45.4607 71.9969 43.1312 71.7445C40.8437 71.4967 39.4911 71.0303 38.4599 70.2812L35.8149 73.9217C37.741 75.3211 39.9762 75.929 42.6465 76.2183C45.2747 76.5031 48.5817 76.5 52.75 76.5V72ZM30.25 54C30.25 58.1683 30.2469 61.4753 30.5317 64.1035C30.821 66.7738 31.4289 69.009 32.8283 70.9351L36.4688 68.2901C35.7197 67.2589 35.2533 65.9062 35.0055 63.6188C34.7531 61.2893 34.75 58.2686 34.75 54H30.25ZM38.4599 70.2812C37.6959 69.726 37.024 69.0541 36.4688 68.2901L32.8283 70.9351C33.6609 72.0812 34.6688 73.0891 35.8149 73.9217L38.4599 70.2812ZM75.25 54C75.25 58.2686 75.2469 61.2893 74.9945 63.6188C74.7467 65.9062 74.2803 67.2589 73.5312 68.2901L77.1717 70.9351C78.5711 69.009 79.179 66.7738 79.4683 64.1035C79.7531 61.4753 79.75 58.1683 79.75 54H75.25ZM57.25 76.5C61.4183 76.5 64.7253 76.5031 67.3535 76.2183C70.0238 75.929 72.259 75.3211 74.1851 73.9217L71.5401 70.2812C70.5089 71.0303 69.1563 71.4967 66.8688 71.7445C64.5393 71.9969 61.5186 72 57.25 72V76.5ZM73.5312 68.2901C72.976 69.0541 72.3041 69.726 71.5401 70.2812L74.1851 73.9217C75.3312 73.0891 76.3391 72.0812 77.1717 70.9351L73.5312 68.2901ZM52.75 31.5C48.5817 31.5 45.2747 31.4969 42.6465 31.7817C39.9762 32.071 37.741 32.6789 35.8149 34.0783L38.4599 37.7188C39.4911 36.9697 40.8437 36.5033 43.1312 36.2555C45.4607 36.0031 48.4814 36 52.75 36V31.5ZM35.8149 34.0783C34.6688 34.9109 33.6609 35.9188 32.8283 37.0649L36.4688 39.7099C37.024 38.9459 37.6959 38.274 38.4599 37.7188L35.8149 34.0783ZM64.693 47.818C60.0002 52.3164 57.5655 53.8401 55 53.8401V58.3401C59.5987 58.3401 63.2529 55.432 67.807 51.0666L64.693 47.818ZM79.75 54C79.75 52.3253 79.75 50.799 79.7329 49.4145L75.2333 49.4702C75.25 50.8213 75.25 52.3179 75.25 54H79.75ZM57.25 36C58.9084 36 60.3866 36 61.723 36.0161L61.777 31.5164C60.4082 31.5 58.9013 31.5 57.25 31.5V36ZM75.25 38.25C75.25 39.4926 74.2426 40.5 73 40.5V45C76.7279 45 79.75 41.9779 79.75 38.25H75.25ZM73 40.5C71.7574 40.5 70.75 39.4926 70.75 38.25H66.25C66.25 41.9779 69.2721 45 73 45V40.5ZM70.75 38.25C70.75 37.0074 71.7574 36 73 36V31.5C69.2721 31.5 66.25 34.5221 66.25 38.25H70.75ZM73 36C74.2426 36 75.25 37.0074 75.25 38.25H79.75C79.75 34.5221 76.7279 31.5 73 31.5V36ZM34.75 54C34.75 50.3128 34.7515 47.5475 34.9183 45.3395C35.0847 43.1368 35.4047 41.7022 35.9243 40.624L31.8704 38.6706C30.9926 40.4923 30.614 42.5792 30.4311 45.0005C30.2485 47.4164 30.25 50.3776 30.25 54H34.75ZM35.9243 40.624C36.0828 40.295 36.2629 39.9934 36.4688 39.7099L32.8283 37.0649C32.4601 37.5716 32.1428 38.1053 31.8704 38.6706L35.9243 40.624ZM36.341 38.909L35.4883 38.0563L32.3063 41.2383L33.159 42.091L36.341 38.909Z" fill="#536DFE"/>
</svg>
