<svg width="39" height="40" viewBox="0 0 39 40" fill="none" xmlns="http://www.w3.org/2000/svg">
<g clip-path="url(#clip0_13:173)">
<path d="M38.8889 20.4321C38.8889 9.69321 30.1833 0.98764 19.4444 0.98764C8.70557 0.98764 0 9.69321 0 20.4321C0 30.1372 7.11051 38.1816 16.4062 39.6403V26.0527H11.4692V20.4321H16.4062V16.1482C16.4062 11.275 19.3092 8.58313 23.7507 8.58313C25.8774 8.58313 28.1033 8.9629 28.1033 8.9629V13.7481H25.6515C23.2361 13.7481 22.4826 15.247 22.4826 16.7863V20.4321H27.8754L27.0133 26.0527H22.4826V39.6403C31.7784 38.1816 38.8889 30.1372 38.8889 20.4321Z" fill="#1877F2"/>
<path d="M27.0133 26.0527L27.8754 20.4321H22.4826V16.7863C22.4826 15.2485 23.236 13.7481 25.6514 13.7481H28.1032V8.9629C28.1032 8.9629 25.8781 8.58313 23.7506 8.58313C19.3092 8.58313 16.4062 11.275 16.4062 16.1482V20.4321H11.4691V26.0527H16.4062V39.6403C18.4194 39.9553 20.4694 39.9553 22.4826 39.6403V26.0527H27.0133Z" fill="white"/>
</g>
<defs>
<clipPath id="clip0_13:173">
<rect width="38.8889" height="38.8889" fill="white" transform="translate(0 0.98764)"/>
</clipPath>
</defs>
</svg>
