<svg width="164" height="49" viewBox="0 0 164 49" fill="none" xmlns="http://www.w3.org/2000/svg">
<path d="M157.926 0.971852C159.279 0.971852 160.577 1.50941 161.534 2.46626C162.491 3.42311 163.028 4.72088 163.028 6.07407V42.5185C163.028 43.8717 162.491 45.1695 161.534 46.1263C160.577 47.0832 159.279 47.6207 157.926 47.6207H6.07407C4.72088 47.6207 3.42311 47.0832 2.46626 46.1263C1.50941 45.1695 0.971852 43.8717 0.971852 42.5185V6.07407C0.971852 4.72088 1.50941 3.42311 2.46626 2.46626C3.42311 1.50941 4.72088 0.971852 6.07407 0.971852H157.926ZM157.926 0H6.07407C4.46313 0 2.91816 0.639945 1.77906 1.77906C0.639945 2.91817 0 4.46313 0 6.07407V42.5185C0 44.1295 0.639945 45.6744 1.77906 46.8135C2.91816 47.9527 4.46313 48.5926 6.07407 48.5926H157.926C159.537 48.5926 161.082 47.9527 162.221 46.8135C163.36 45.6744 164 44.1295 164 42.5185V6.07407C164 4.46313 163.36 2.91817 162.221 1.77906C161.082 0.639945 159.537 0 157.926 0Z" fill="black"/>
<path d="M82.7776 26.4222C81.7575 26.427 80.7617 26.7339 79.9158 27.3041C79.07 27.8743 78.412 28.6823 78.025 29.6262C77.6379 30.57 77.5391 31.6073 77.7411 32.6072C77.943 33.6071 78.4367 34.5248 79.1597 35.2444C79.8827 35.9641 80.8027 36.4534 81.8035 36.6506C82.8044 36.8479 83.8412 36.7442 84.7832 36.3527C85.7252 35.9613 86.5301 35.2995 87.0964 34.451C87.6626 33.6025 87.9648 32.6053 87.9648 31.5852C87.9747 30.9024 87.8471 30.2245 87.5896 29.5921C87.3322 28.9596 86.95 28.3854 86.466 27.9037C85.982 27.4219 85.4061 27.0425 84.7724 26.788C84.1387 26.5335 83.4603 26.4091 82.7776 26.4222V26.4222ZM82.7776 34.7194C82.1502 34.7633 81.5242 34.6174 80.9808 34.3007C80.4374 33.9841 80.0019 33.5113 79.7308 32.9439C79.4597 32.3764 79.3656 31.7405 79.4607 31.1189C79.5558 30.4972 79.8357 29.9185 80.2641 29.4581C80.6924 28.9976 81.2494 28.6766 81.8625 28.5369C82.4757 28.3972 83.1167 28.4451 83.7023 28.6746C84.2878 28.904 84.7908 29.3042 85.1458 29.8233C85.5009 30.3424 85.6916 30.9563 85.6931 31.5852C85.7127 31.9836 85.6523 32.382 85.5154 32.7568C85.3786 33.1315 85.1681 33.4751 84.8964 33.7672C84.6246 34.0593 84.2972 34.294 83.9333 34.4576C83.5694 34.6211 83.1764 34.7101 82.7776 34.7194ZM71.4676 26.4222C70.447 26.4246 69.45 26.7294 68.6026 27.2982C67.7551 27.867 67.0953 28.6742 66.7063 29.6178C66.3174 30.5614 66.2169 31.5991 66.4175 32.5998C66.6181 33.6005 67.1108 34.5194 67.8333 35.2402C68.5558 35.961 69.4758 36.4516 70.477 36.6498C71.4782 36.848 72.5157 36.7451 73.4584 36.3539C74.4011 35.9628 75.2067 35.3011 75.7735 34.4523C76.3402 33.6035 76.6427 32.6058 76.6427 31.5852C76.6526 30.9024 76.5251 30.2245 76.2676 29.5921C76.0101 28.9596 75.628 28.3854 75.144 27.9037C74.66 27.4219 74.084 27.0425 73.4503 26.788C72.8166 26.5335 72.1382 26.4091 71.4555 26.4222H71.4676ZM71.4676 34.7194C70.84 34.7657 70.2129 34.622 69.668 34.307C69.1232 33.992 68.6858 33.5202 68.4128 32.9532C68.1398 32.3861 68.0439 31.7499 68.1375 31.1276C68.2311 30.5052 68.5098 29.9254 68.9376 29.4637C69.3653 29.002 69.9221 28.6798 70.5355 28.5389C71.1489 28.3981 71.7905 28.4452 72.3767 28.6741C72.963 28.903 73.4668 29.3031 73.8225 29.8223C74.1782 30.3415 74.3693 30.9558 74.371 31.5852C74.3906 31.9836 74.3302 32.382 74.1933 32.7568C74.0565 33.1315 73.846 33.4751 73.5743 33.7672C73.3026 34.0593 72.9751 34.294 72.6112 34.4576C72.2473 34.6211 71.8543 34.7101 71.4555 34.7194H71.4676ZM57.9953 28.0136V30.2003H63.2433C63.161 31.2302 62.7329 32.202 62.0285 32.9579C61.5035 33.4927 60.8723 33.9117 60.1756 34.1878C59.4789 34.464 58.732 34.5913 57.9832 34.5615C56.4367 34.5615 54.9535 33.9471 53.86 32.8536C52.7664 31.76 52.1521 30.2769 52.1521 28.7303C52.1521 27.1838 52.7664 25.7007 53.86 24.6071C54.9535 23.5136 56.4367 22.8992 57.9832 22.8992C59.4626 22.8751 60.8912 23.4387 61.9556 24.4663L63.4984 22.9235C62.7799 22.1959 61.9225 21.6199 60.9772 21.2297C60.032 20.8395 59.018 20.643 57.9953 20.6518C56.9154 20.6098 55.838 20.7862 54.8279 21.1705C53.8177 21.5548 52.8955 22.1391 52.1165 22.8883C51.3376 23.6375 50.7179 24.5363 50.2946 25.5308C49.8713 26.5252 49.6531 27.5949 49.6531 28.6757C49.6531 29.7565 49.8713 30.8261 50.2946 31.8206C50.7179 32.815 51.3376 33.7138 52.1165 34.463C52.8955 35.2123 53.8177 35.7965 54.8279 36.1808C55.838 36.5651 56.9154 36.7416 57.9953 36.6995C59.0352 36.7465 60.073 36.5703 61.039 36.1826C62.005 35.7949 62.8767 35.2049 63.5956 34.4521C64.8684 33.0538 65.5479 31.2156 65.4907 29.3256C65.4947 28.8652 65.454 28.4054 65.3693 27.9529L57.9953 28.0136ZM113.039 29.7143C112.722 28.7823 112.129 27.9684 111.34 27.3805C110.55 26.7926 109.6 26.4584 108.617 26.4222C107.952 26.4209 107.294 26.5559 106.684 26.8189C106.074 27.0818 105.524 27.4672 105.069 27.9511C104.613 28.435 104.262 29.0071 104.036 29.6322C103.811 30.2573 103.716 30.922 103.757 31.5852C103.743 32.2641 103.865 32.9391 104.117 33.5698C104.369 34.2005 104.745 34.7739 105.224 35.2558C105.702 35.7377 106.273 36.1183 106.902 36.3747C107.531 36.6311 108.205 36.7581 108.884 36.7481C109.734 36.7527 110.571 36.5465 111.322 36.1479C112.072 35.7493 112.712 35.1709 113.184 34.4643L111.423 33.2495C111.16 33.6877 110.788 34.0503 110.343 34.3015C109.898 34.5528 109.395 34.6842 108.884 34.6829C108.358 34.703 107.838 34.5643 107.391 34.2848C106.945 34.0053 106.593 33.598 106.381 33.1158L113.294 30.261L113.039 29.7143ZM105.993 31.4394C105.968 31.0636 106.019 30.6867 106.141 30.3308C106.264 29.9748 106.457 29.647 106.708 29.3664C106.959 29.0858 107.264 28.8582 107.604 28.6968C107.944 28.5355 108.313 28.4436 108.69 28.4266C109.081 28.4008 109.472 28.4907 109.813 28.685C110.155 28.8794 110.431 29.1697 110.609 29.52L105.993 31.4394ZM100.38 36.4444H102.652V21.2592H100.38V36.4444ZM96.6629 27.5763H96.5779C96.2355 27.1935 95.8161 26.8874 95.3471 26.678C94.8781 26.4687 94.3702 26.3608 93.8567 26.3615C92.5291 26.4258 91.2772 26.9985 90.3604 27.9609C89.4436 28.9232 88.9322 30.2014 88.9322 31.5305C88.9322 32.8596 89.4436 34.1378 90.3604 35.1001C91.2772 36.0625 92.5291 36.6352 93.8567 36.6995C94.3715 36.7082 94.8819 36.6039 95.352 36.394C95.8222 36.1841 96.2406 35.8737 96.5779 35.4847H96.6507V36.2258C96.6507 38.2059 95.5939 39.2628 93.8931 39.2628C93.3267 39.2495 92.777 39.068 92.314 38.7414C91.8511 38.4147 91.4958 37.9577 91.2934 37.4284L89.3133 38.2545C89.686 39.1612 90.3211 39.9358 91.1371 40.4791C91.9531 41.0224 92.9128 41.3095 93.8931 41.3037C96.5536 41.3037 98.7524 39.7366 98.7524 35.9221V26.7259H96.6629V27.5763ZM94.0632 34.7194C93.2796 34.6503 92.5502 34.2902 92.019 33.7101C91.4877 33.1299 91.193 32.3718 91.193 31.5852C91.193 30.7985 91.4877 30.0404 92.019 29.4602C92.5502 28.8801 93.2796 28.52 94.0632 28.4509C94.4517 28.4709 94.8323 28.5684 95.1826 28.7377C95.5328 28.907 95.8457 29.1447 96.1027 29.4368C96.3597 29.7288 96.5556 30.0694 96.6789 30.4384C96.8023 30.8073 96.8505 31.1973 96.8208 31.5852C96.854 31.9747 96.8077 32.367 96.685 32.7382C96.5622 33.1094 96.3654 33.4519 96.1065 33.7448C95.8476 34.0378 95.5319 34.2752 95.1786 34.4428C94.8253 34.6103 94.4417 34.7044 94.051 34.7194H94.0632ZM123.68 21.2592H118.25V36.4444H120.522V30.6862H123.693C124.34 30.7327 124.99 30.6453 125.602 30.4295C126.214 30.2137 126.776 29.8741 127.251 29.4319C127.726 28.9897 128.105 28.4543 128.364 27.8591C128.623 27.264 128.757 26.6218 128.757 25.9727C128.757 25.3236 128.623 24.6815 128.364 24.0863C128.105 23.4912 127.726 22.9558 127.251 22.5135C126.776 22.0713 126.214 21.7317 125.602 21.5159C124.99 21.3001 124.34 21.2127 123.693 21.2592H123.68ZM123.68 28.5481H120.51V23.373H123.729C124.42 23.373 125.083 23.6475 125.572 24.1362C126.06 24.6249 126.335 25.2877 126.335 25.9788C126.335 26.6699 126.06 27.3327 125.572 27.8214C125.083 28.31 124.42 28.5846 123.729 28.5846L123.68 28.5481ZM137.687 26.3615C136.86 26.312 136.037 26.5053 135.318 26.9175C134.599 27.3297 134.017 27.9429 133.642 28.6818L135.658 29.52C135.857 29.1535 136.158 28.8528 136.525 28.6544C136.892 28.4559 137.308 28.3684 137.724 28.4023C138.012 28.3687 138.304 28.3928 138.583 28.4732C138.862 28.5536 139.122 28.6888 139.348 28.8709C139.575 29.053 139.762 29.2783 139.9 29.5336C140.039 29.789 140.125 30.0693 140.153 30.3582V30.5161C139.424 30.1298 138.61 29.9295 137.784 29.933C135.61 29.933 133.411 31.1478 133.411 33.3466C133.432 33.8155 133.548 34.2753 133.75 34.6988C133.952 35.1223 134.237 35.501 134.588 35.8125C134.939 36.1239 135.349 36.3618 135.794 36.5121C136.239 36.6624 136.709 36.722 137.177 36.6874C137.749 36.7285 138.322 36.6148 138.835 36.3583C139.348 36.1018 139.782 35.7119 140.093 35.2296H140.165V36.4444H142.352V30.6012C142.352 27.9407 140.335 26.3979 137.748 26.3979L137.687 26.3615ZM137.408 34.6829C136.667 34.6829 135.634 34.3063 135.634 33.3952C135.634 32.1804 136.922 31.7795 138.064 31.7795C138.785 31.7617 139.499 31.9379 140.129 32.2898C140.053 32.9475 139.742 33.5555 139.253 34.002C138.764 34.4485 138.13 34.7033 137.469 34.7194L137.408 34.6829ZM150.321 26.7259L147.722 33.3102H147.649L144.952 26.7259H142.522L146.567 35.9342L144.259 41.0486H146.628L152.848 26.7259H150.321ZM129.9 36.4444H132.172V21.2592H129.9V36.4444Z" fill="black"/>
<path d="M12.7499 39.7225L27.6321 24.2867L12.7624 8.87866C12.3652 9.11855 12.1194 9.67398 12.1194 10.401V38.2149C12.1247 38.9419 12.3616 39.4568 12.7499 39.7225V39.7225Z" fill="black"/>
<path d="M28.1652 23.8605L32.5981 19.2621L14.5457 8.99497C14.2418 8.81177 13.8965 8.71501 13.5448 8.71448L28.1634 23.8587L28.1652 23.8605Z" fill="black"/>
<path d="M28.1651 24.7149L13.5002 39.9255C13.8683 39.9319 14.2309 39.8323 14.5475 39.6377L32.6355 29.3429L28.1651 24.7149Z" fill="black"/>
<path d="M39.138 22.9877L33.1306 19.5647L28.5765 24.2886L33.1644 29.042L39.1362 25.6283C40.406 24.9031 40.406 23.7092 39.138 22.9877Z" fill="black"/>
<path d="M50.8676 15.7344V8.86938H52.7865C53.3492 8.86938 53.8537 8.99826 54.3 9.25601C54.7464 9.51062 55.0937 9.87682 55.3421 10.3546C55.5935 10.8324 55.7193 11.3762 55.7193 11.986V12.6178C55.7193 13.2307 55.5951 13.7745 55.3468 14.2492C55.0984 14.7238 54.748 15.09 54.2953 15.3477C53.8458 15.6055 53.3288 15.7344 52.7441 15.7344H50.8676ZM51.4475 9.36446V15.244H52.7488C53.4718 15.244 54.0517 15.0051 54.4886 14.5273C54.9256 14.0464 55.144 13.3973 55.144 12.5801V11.9765C55.144 11.1876 54.9287 10.5558 54.4981 10.0811C54.0674 9.60649 53.5001 9.3676 52.796 9.36446H51.4475ZM57.9023 15.7344H57.3223V8.86938H57.9023V15.7344ZM63.6545 14.0464C63.6545 13.6661 63.521 13.3659 63.2538 13.1459C62.9866 12.9227 62.4978 12.7121 61.7874 12.5141C61.077 12.3129 60.5584 12.0944 60.2315 11.8587C59.7663 11.5255 59.5337 11.0886 59.5337 10.5479C59.5337 10.023 59.749 9.59706 60.1796 9.27016C60.6134 8.94011 61.1666 8.77509 61.8393 8.77509C62.2951 8.77509 62.7021 8.8631 63.0605 9.03912C63.4219 9.21515 63.7017 9.46033 63.8997 9.77466C64.0977 10.089 64.1968 10.4395 64.1968 10.8261H63.6121C63.6121 10.3577 63.4518 9.98212 63.1312 9.69922C62.8106 9.41318 62.3799 9.27016 61.8393 9.27016C61.3143 9.27016 60.8963 9.38803 60.5851 9.62378C60.2739 9.85638 60.1183 10.1613 60.1183 10.5385C60.1183 10.8874 60.2582 11.1719 60.5379 11.3919C60.8177 11.6119 61.2656 11.8068 61.8817 11.9765C62.4978 12.1431 62.9646 12.3176 63.2821 12.4999C63.5995 12.6791 63.8384 12.8944 63.9987 13.1459C64.159 13.3973 64.2392 13.6944 64.2392 14.037C64.2392 14.5776 64.0223 15.0114 63.5885 15.3383C63.1579 15.6652 62.589 15.8287 61.8817 15.8287C61.3976 15.8287 60.9529 15.7422 60.5474 15.5694C60.145 15.3965 59.8386 15.1544 59.628 14.8432C59.4205 14.5321 59.3168 14.1753 59.3168 13.7729H59.8967C59.8967 14.257 60.0775 14.6389 60.4389 14.9187C60.8004 15.1984 61.2813 15.3383 61.8817 15.3383C62.4161 15.3383 62.8451 15.2204 63.1689 14.9847C63.4927 14.7489 63.6545 14.4362 63.6545 14.0464ZM66.0733 12.9384V15.7344H65.4934V8.86938H67.832C68.5455 8.86938 69.1082 9.0517 69.52 9.41632C69.9349 9.78094 70.1423 10.2823 70.1423 10.9204C70.1423 11.5648 69.9427 12.063 69.5435 12.415C69.1475 12.7639 68.5723 12.9384 67.8179 12.9384H66.0733ZM66.0733 12.448H67.832C68.3947 12.448 68.8237 12.3145 69.1192 12.0473C69.4147 11.7801 69.5624 11.4076 69.5624 10.9298C69.5624 10.4552 69.4147 10.078 69.1192 9.79823C68.8269 9.51534 68.4104 9.37074 67.8697 9.36446H66.0733V12.448ZM76.517 12.6744C76.517 13.3062 76.407 13.861 76.1869 14.3387C75.97 14.8165 75.6588 15.1843 75.2534 15.442C74.8479 15.6998 74.3795 15.8287 73.8483 15.8287C73.0468 15.8287 72.3992 15.5426 71.9057 14.9706C71.4122 14.3953 71.1655 13.6205 71.1655 12.6461V11.9388C71.1655 11.3133 71.2755 10.7601 71.4955 10.2792C71.7187 9.79509 72.033 9.42418 72.4385 9.16643C72.844 8.90553 73.3108 8.77509 73.8389 8.77509C74.3669 8.77509 74.8322 8.90239 75.2345 9.157C75.64 9.41161 75.9527 9.77151 76.1728 10.2367C76.3928 10.7019 76.5075 11.241 76.517 11.854V12.6744ZM75.937 11.9294C75.937 11.1027 75.75 10.4552 75.3759 9.98683C75.0019 9.51848 74.4895 9.2843 73.8389 9.2843C73.2008 9.2843 72.6916 9.52005 72.3112 9.99155C71.934 10.4599 71.7454 11.1153 71.7454 11.9577V12.6744C71.7454 13.4885 71.934 14.1344 72.3112 14.6122C72.6884 15.0869 73.2008 15.3242 73.8483 15.3242C74.5052 15.3242 75.0176 15.09 75.3854 14.6216C75.7531 14.1501 75.937 13.4948 75.937 12.6555V11.9294ZM83.0896 15.7344H82.5097L78.5633 9.85953V15.7344H77.9786V8.86938H78.5633L82.5144 14.7489V8.86938H83.0896V15.7344ZM85.5414 15.7344H84.9615V8.86938H85.5414V15.7344ZM87.4085 15.7344V8.86938H89.436C90.1715 8.86938 90.7294 9.02184 91.1098 9.32674C91.4901 9.62849 91.6803 10.0748 91.6803 10.6658C91.6803 11.021 91.5829 11.3306 91.388 11.5946C91.1962 11.8555 90.9322 12.0426 90.5959 12.1557C90.9951 12.2437 91.3157 12.4402 91.5577 12.7451C91.8029 13.05 91.9255 13.402 91.9255 13.8012C91.9255 14.4079 91.729 14.8825 91.3361 15.2252C90.9463 15.5646 90.4025 15.7344 89.7047 15.7344H87.4085ZM87.9885 12.4339V15.244H89.7283C90.2249 15.244 90.6179 15.1183 90.907 14.8668C91.1994 14.6122 91.3455 14.2602 91.3455 13.8107C91.3455 13.3863 91.2057 13.0516 90.9259 12.8064C90.6493 12.5581 90.2658 12.4339 89.7755 12.4339H87.9885ZM87.9885 11.9483H89.5727C90.0568 11.9388 90.4308 11.8257 90.6949 11.6088C90.9621 11.3887 91.0956 11.0697 91.0956 10.6516C91.0956 10.2116 90.9573 9.88782 90.6807 9.68036C90.4073 9.46976 89.9923 9.36446 89.436 9.36446H87.9885V11.9483ZM93.9152 15.244H97.3053V15.7344H93.3305V8.86938H93.9152V15.244ZM102.214 12.4433H99.0026V15.244H102.694V15.7344H98.4227V8.86938H102.671V9.36446H99.0026V11.953H102.214V12.4433ZM110.059 12.4433H106.848V15.244H110.54V15.7344H106.268V8.86938H110.517V9.36446H106.848V11.953H110.059V12.4433ZM116.877 15.7344H116.297L112.351 9.85953V15.7344H111.766V8.86938H112.351L116.302 14.7489V8.86938H116.877V15.7344Z" fill="black"/>
</svg>
