<svg width="39" height="40" viewBox="0 0 39 40" fill="none" xmlns="http://www.w3.org/2000/svg">
<g clip-path="url(#clip0_13:179)">
<path d="M38.6209 20.88C38.6209 19.5582 38.5137 18.2293 38.2851 16.929H19.9445V24.4167H30.4473C30.0114 26.8316 28.6111 28.9679 26.5605 30.3254V35.1838H32.8265C36.506 31.7972 38.6209 26.7959 38.6209 20.88Z" fill="#4285F4"/>
<path d="M19.9444 39.8779C25.1887 39.8779 29.6113 38.156 32.8335 35.1838L26.5676 30.3253C24.8243 31.5114 22.5737 32.183 19.9515 32.183C14.8788 32.183 10.5776 28.7606 9.03436 24.1594H2.56836V29.1679C5.86924 35.7339 12.5925 39.8779 19.9444 39.8779Z" fill="#34A853"/>
<path d="M9.02726 24.1594C8.21276 21.7445 8.21276 19.1295 9.02726 16.7146V11.7061H2.56841C-0.189469 17.2004 -0.189469 23.6736 2.56841 29.1679L9.02726 24.1594Z" fill="#FBBC04"/>
<path d="M19.9444 8.68386C22.7166 8.641 25.3958 9.68413 27.4035 11.5989L32.955 6.04745C29.4398 2.74658 24.7743 0.931808 19.9444 0.988966C12.5924 0.988966 5.86924 5.13292 2.56836 11.7061L9.02722 16.7146C10.5633 12.1062 14.8716 8.68386 19.9444 8.68386Z" fill="#EA4335"/>
</g>
<defs>
<clipPath id="clip0_13:179">
<rect width="38.8889" height="38.8889" fill="white" transform="translate(0.111084 0.98764)"/>
</clipPath>
</defs>
</svg>
