<svg width="108" height="108" viewBox="0 0 108 108" fill="none" xmlns="http://www.w3.org/2000/svg">
<circle opacity="0.5" cx="53.5" cy="54.5" r="47.5" fill="#E8EAF6"/>
<path d="M36.0744 74.7831L34.7519 76.6034L36.0744 74.7831ZM33.2169 71.9256L31.3966 73.2481H31.3966L33.2169 71.9256ZM74.7831 71.9256L72.9628 70.603L74.7831 71.9256ZM71.9256 74.7831L70.603 72.9628L71.9256 74.7831ZM71.9256 33.2169L70.603 35.0372L71.9256 33.2169ZM74.7831 36.0744L72.9628 37.397L74.7831 36.0744ZM36.0744 33.2169L37.397 35.0372L36.0744 33.2169ZM33.2169 36.0744L35.0372 37.397L33.2169 36.0744ZM35.9256 74.2339L33.6775 74.1413L33.6756 74.1876V74.2339H35.9256ZM72.0589 73.9498L74.3075 73.873L74.3062 73.8345L74.3036 73.796L72.0589 73.9498ZM62.0833 46.25C62.0833 50.7143 58.4643 54.3333 54 54.3333V58.8333C60.9496 58.8333 66.5833 53.1996 66.5833 46.25H62.0833ZM54 54.3333C49.5357 54.3333 45.9167 50.7143 45.9167 46.25H41.4167C41.4167 53.1996 47.0504 58.8333 54 58.8333V54.3333ZM45.9167 46.25C45.9167 41.7857 49.5357 38.1667 54 38.1667V33.6667C47.0504 33.6667 41.4167 39.3004 41.4167 46.25H45.9167ZM54 38.1667C58.4643 38.1667 62.0833 41.7857 62.0833 46.25H66.5833C66.5833 39.3004 60.9496 33.6667 54 33.6667V38.1667ZM54 75C49.1065 75 45.6171 74.9969 42.9203 74.7047C40.2656 74.4171 38.6472 73.8712 37.397 72.9628L34.7519 76.6034C36.8971 78.162 39.398 78.8495 42.4356 79.1786C45.431 79.5031 49.2067 79.5 54 79.5V75ZM28.5 54C28.5 58.7933 28.4969 62.569 28.8214 65.5644C29.1505 68.602 29.838 71.1029 31.3966 73.2481L35.0372 70.603C34.1288 69.3528 33.5829 67.7344 33.2953 65.0797C33.0031 62.3829 33 58.8935 33 54H28.5ZM75 54C75 58.8935 74.9969 62.3829 74.7047 65.0797C74.4171 67.7344 73.8712 69.3528 72.9628 70.603L76.6034 73.2481C78.162 71.1029 78.8495 68.602 79.1786 65.5644C79.5031 62.569 79.5 58.7933 79.5 54H75ZM54 79.5C58.7933 79.5 62.569 79.5031 65.5644 79.1786C68.602 78.8495 71.1029 78.162 73.2481 76.6034L70.603 72.9628C69.3528 73.8712 67.7344 74.4171 65.0797 74.7047C62.3829 74.9969 58.8935 75 54 75V79.5ZM54 33C58.8935 33 62.3829 33.0031 65.0797 33.2953C67.7344 33.5829 69.3528 34.1288 70.603 35.0372L73.2481 31.3966C71.1029 29.838 68.602 29.1505 65.5644 28.8214C62.569 28.4969 58.7933 28.5 54 28.5V33ZM79.5 54C79.5 49.2067 79.5031 45.431 79.1786 42.4356C78.8495 39.398 78.162 36.8971 76.6034 34.7519L72.9628 37.397C73.8712 38.6472 74.4171 40.2656 74.7047 42.9203C74.9969 45.6171 75 49.1065 75 54H79.5ZM70.603 35.0372C71.5086 35.6951 72.3049 36.4914 72.9628 37.397L76.6034 34.7519C75.6679 33.4644 74.5356 32.332 73.2481 31.3966L70.603 35.0372ZM54 28.5C49.2067 28.5 45.431 28.4969 42.4356 28.8214C39.398 29.1505 36.8971 29.838 34.7519 31.3966L37.397 35.0372C38.6472 34.1288 40.2656 33.5829 42.9203 33.2953C45.6171 33.0031 49.1065 33 54 33V28.5ZM33 54C33 49.1065 33.0031 45.6171 33.2953 42.9203C33.5829 40.2656 34.1288 38.6472 35.0372 37.397L31.3966 34.7519C29.838 36.8971 29.1505 39.398 28.8214 42.4356C28.4969 45.431 28.5 49.2067 28.5 54H33ZM34.7519 31.3966C33.4644 32.332 32.332 33.4644 31.3966 34.7519L35.0372 37.397C35.6951 36.4914 36.4914 35.6951 37.397 35.0372L34.7519 31.3966ZM46.25 66.5833H61.75V62.0833H46.25V66.5833ZM46.25 62.0833C39.4764 62.0833 33.9537 67.4345 33.6775 74.1413L38.1737 74.3265C38.351 70.0209 41.8996 66.5833 46.25 66.5833V62.0833ZM37.397 72.9628C37.3558 72.9329 37.3148 72.9027 37.274 72.8722L34.5771 76.4745C34.635 76.5179 34.6933 76.5608 34.7519 76.6034L37.397 72.9628ZM37.274 72.8722C36.4192 72.2322 35.6651 71.4674 35.0372 70.603L31.3966 73.2481C32.2895 74.4771 33.3617 75.5646 34.5771 76.4745L37.274 72.8722ZM33.6756 74.2339V74.6733H38.1756V74.2339H33.6756ZM61.75 66.5833C66.0249 66.5833 69.5263 69.9031 69.8141 74.1036L74.3036 73.796C73.8551 67.2514 68.4071 62.0833 61.75 62.0833V66.5833ZM72.9628 70.603C72.3367 71.4649 71.5851 72.2278 70.7333 72.8667L73.4333 76.4667C74.6444 75.5583 75.7131 74.4735 76.6034 73.2481L72.9628 70.603ZM70.7333 72.8667C70.6901 72.8991 70.6467 72.9311 70.603 72.9628L73.2481 76.6034C73.3102 76.5583 73.372 76.5127 73.4333 76.4667L70.7333 72.8667ZM69.8102 74.0266L69.8346 74.7435L74.332 74.5899L74.3075 73.873L69.8102 74.0266Z" fill="#536DFE"/>
</svg>
