<svg width="108" height="108" viewBox="0 0 108 108" fill="none" xmlns="http://www.w3.org/2000/svg">
<circle opacity="0.5" cx="53.5" cy="54.5" r="47.5" fill="#E8EAF6"/>
<path d="M31 48.6667C31 44.9848 33.9848 42 37.6667 42C41.3486 42 44.3333 44.9848 44.3333 48.6667V70C44.3333 73.6819 41.3486 76.6667 37.6667 76.6667C33.9848 76.6667 31 73.6819 31 70V48.6667Z" stroke="#536DFE" stroke-width="4.5"/>
<path d="M53.8678 34.5065L47.9197 44.1722C46.3227 46.7673 45.5242 48.0649 45.0414 49.4868C44.8941 49.9205 44.7692 50.3616 44.6674 50.8081C44.3333 52.2722 44.3333 53.7958 44.3333 56.8429V66C44.3333 71.891 49.109 76.6667 55 76.6667H62.7595C67.8098 76.6667 72.4267 73.8133 74.6852 69.2962L77.748 63.1708C80.7735 57.1197 76.3733 50 69.608 50H67.7686C63.158 50 59.6323 45.8903 60.3333 41.3333L60.9814 37.1206C61.3417 34.7787 59.5298 32.6667 57.1603 32.6667C55.8178 32.6667 54.5714 33.3632 53.8678 34.5065Z" stroke="#536DFE" stroke-width="4.5"/>
</svg>
