<svg width="108" height="108" viewBox="0 0 108 108" fill="none" xmlns="http://www.w3.org/2000/svg">
<circle opacity="0.5" cx="53.5" cy="54.5" r="47.5" fill="#E8EAF6"/>
<path d="M43.2974 56.6865L44.8956 55.1027L43.2974 56.6865ZM49.6969 63.1439L48.0988 64.7277L49.6969 63.1439ZM60.1613 82.7706L60.6536 80.5752L60.1613 82.7706ZM23.8467 46.1275L26.044 45.6436L23.8467 46.1275ZM40.2098 40.2355L41.808 38.6517V38.6517L40.2098 40.2355ZM25.9916 38.6949L27.5898 40.2787H27.5898L25.9916 38.6949ZM67.5273 80.6063L69.1254 82.1901L67.5273 80.6063ZM69.8938 78.2183L68.2957 76.6345L69.8938 78.2183ZM70.2531 77.849L68.5895 76.334L70.2531 77.849ZM69.8938 70.1881L71.492 68.6043L69.8938 70.1881ZM70.2531 70.5574L68.5895 72.0723L70.2531 70.5574ZM66.0004 66.2595L64.4023 67.8433L66.0004 66.2595ZM28.3582 36.3069L26.76 34.7231L28.3582 36.3069ZM28.7242 35.9444L27.1944 34.2944L28.7242 35.9444ZM36.3164 36.3069L34.7183 37.8907H34.7183L36.3164 36.3069ZM35.9504 35.9444L37.4802 34.2944L35.9504 35.9444ZM67.3486 52.2418L65.0986 52.2418V52.2418H67.3486ZM65.0986 53.7658C65.0986 55.0085 66.106 56.0158 67.3486 56.0158C68.5913 56.0158 69.5986 55.0085 69.5986 53.7658H65.0986ZM52.2447 36.2753C51.0021 36.2753 49.9947 37.2827 49.9947 38.5253C49.9947 39.768 51.0021 40.7753 52.2447 40.7753V36.2753ZM53.7551 38.5253V40.7753H53.7551L53.7551 38.5253ZM67.3472 51.8032L69.597 51.7713V51.7713L67.3472 51.8032ZM54.1897 38.5267L54.2222 36.2769L54.2222 36.2769L54.1897 38.5267ZM76.7888 53.0038H79.0388H76.7888ZM74.5388 55.6709C74.5388 56.9135 75.5462 57.9209 76.7888 57.9209C78.0315 57.9209 79.0388 56.9135 79.0388 55.6709H74.5388ZM50.3571 26.75C49.1144 26.75 48.1071 27.7574 48.1071 29C48.1071 30.2426 49.1144 31.25 50.3571 31.25L50.3571 26.75ZM53.0002 29V31.25H53.0002L53.0002 29ZM76.7037 48.6313L74.4625 48.8302L76.7037 48.6313ZM57.3335 29.0859L57.1311 31.3267L57.3335 29.0859ZM68.2957 76.6345L65.9291 79.0224L69.1254 82.1901L71.492 79.8021L68.2957 76.6345ZM27.5898 40.2787L29.9563 37.8907L26.76 34.7231L24.3935 37.111L27.5898 40.2787ZM64.4023 67.8433L68.2957 71.7719L71.492 68.6043L67.5986 64.6756L64.4023 67.8433ZM34.7183 37.8907L38.6117 41.8193L41.808 38.6517L37.9146 34.7231L34.7183 37.8907ZM39.6881 47.5687C38.1151 51.21 38.9085 55.4543 41.6993 58.2703L44.8956 55.1027C43.4034 53.597 42.9718 51.3147 43.8191 49.3533L39.6881 47.5687ZM48.0988 64.7277C50.8933 67.5475 55.1221 68.359 58.7546 66.7613L56.9428 62.6421C55.0228 63.4866 52.7836 63.0621 51.2951 61.5601L48.0988 64.7277ZM60.6536 80.5752C43.3867 76.7034 29.8866 63.0918 26.044 45.6436L21.6493 46.6114C25.8637 65.7478 40.6793 80.708 59.669 84.9661L60.6536 80.5752ZM38.6117 41.8193C40.1038 43.325 40.5354 45.6073 39.6881 47.5687L43.8191 49.3533C45.3921 45.712 44.5988 41.4678 41.808 38.6517L38.6117 41.8193ZM24.3935 37.111C21.9257 39.6011 20.8945 43.1842 21.6493 46.6114L26.044 45.6436C25.6163 43.7015 26.2031 41.6778 27.5898 40.2787L24.3935 37.111ZM65.9291 79.0224C64.5443 80.4198 62.5547 81.0015 60.6536 80.5752L59.669 84.9661C63.089 85.733 66.6558 84.682 69.1254 82.1901L65.9291 79.0224ZM71.492 79.8021C71.6644 79.6281 71.8003 79.4917 71.9167 79.3639L68.5895 76.334C68.5532 76.3739 68.5005 76.4278 68.2957 76.6345L71.492 79.8021ZM68.2957 71.7719C68.5005 71.9785 68.5532 72.0325 68.5895 72.0723L71.9167 69.0425C71.8003 68.9147 71.6644 68.7783 71.492 68.6043L68.2957 71.7719ZM71.9167 79.3639C74.5758 76.4438 74.5758 71.9626 71.9167 69.0425L68.5895 72.0723C69.6849 73.2752 69.6849 75.1312 68.5895 76.334L71.9167 79.3639ZM67.5986 64.6756C64.8041 61.8559 60.5752 61.0444 56.9428 62.6421L58.7546 66.7613C60.6746 65.9168 62.9138 66.3413 64.4023 67.8433L67.5986 64.6756ZM29.9563 37.8907C30.1611 37.684 30.2146 37.6308 30.254 37.5943L27.1944 34.2944C27.0677 34.412 26.9325 34.5491 26.76 34.7231L29.9563 37.8907ZM37.9146 34.7231C37.7421 34.5491 37.6069 34.412 37.4802 34.2944L34.4206 37.5943C34.46 37.6308 34.5134 37.684 34.7183 37.8907L37.9146 34.7231ZM30.254 37.5943C31.434 36.5002 33.2406 36.5002 34.4206 37.5943L37.4802 34.2944C34.5743 31.6001 30.1003 31.6001 27.1944 34.2944L30.254 37.5943ZM41.6993 58.2703L48.0988 64.7277L51.2951 61.5601L44.8956 55.1027L41.6993 58.2703ZM65.0986 52.2418V53.7658H69.5986V52.2418H65.0986ZM52.2447 40.7753H53.7551V36.2753H52.2447V40.7753ZM69.5986 52.2418C69.5986 52.0214 69.5987 51.8877 69.597 51.7713L65.0975 51.8352C65.0986 51.9116 65.0986 52.006 65.0986 52.2418L69.5986 52.2418ZM53.7551 40.7753C53.989 40.7753 54.082 40.7754 54.1572 40.7765L54.2222 36.2769C54.1063 36.2753 53.9733 36.2753 53.7551 36.2753L53.7551 40.7753ZM69.597 51.7713C69.4765 43.2835 62.6813 36.3992 54.2222 36.2769L54.1572 40.7765C60.145 40.863 65.011 45.7455 65.0975 51.8352L69.597 51.7713ZM74.5388 53.0038V55.6709H79.0388V53.0038H74.5388ZM50.3571 31.25L53.0002 31.25V26.75L50.3571 26.75L50.3571 31.25ZM79.0388 53.0038C79.0388 50.7764 79.0411 49.5158 78.9449 48.4324L74.4625 48.8302C74.5366 49.665 74.5388 50.6799 74.5388 53.0038H79.0388ZM53.0002 31.25C55.3045 31.25 56.3071 31.2523 57.1311 31.3267L57.536 26.845C56.459 26.7477 55.2063 26.75 53.0002 26.75L53.0002 31.25ZM78.9449 48.4324C77.9285 36.9775 68.9265 27.874 57.536 26.845L57.1311 31.3267C66.3247 32.1573 73.636 39.5147 74.4625 48.8302L78.9449 48.4324Z" fill="#536DFE"/>
</svg>
