<svg width="108" height="108" viewBox="0 0 108 108" fill="none" xmlns="http://www.w3.org/2000/svg">
<circle opacity="0.5" cx="53.5" cy="54.5" r="47.5" fill="#E8EAF6"/>
<path d="M78 53.6436C78 40.5856 67.4787 30 54.5 30C41.5213 30 31 40.5856 31 53.6436C31 65.4446 39.5936 75.2263 50.8281 77V60.4781H44.8613V53.6436H50.8281V48.4346C50.8281 42.509 54.3366 39.2358 59.7044 39.2358C62.2747 39.2358 64.9648 39.6976 64.9648 39.6976V45.5161H62.0016C59.0825 45.5161 58.1719 47.3388 58.1719 49.2104V53.6436H64.6895L63.6476 60.4781H58.1719V77C69.4064 75.2263 78 65.4446 78 53.6436Z" fill="#536DFE"/>
</svg>
