<svg width="108" height="108" viewBox="0 0 108 108" fill="none" xmlns="http://www.w3.org/2000/svg">
<circle opacity="0.5" cx="53.5" cy="54.5" r="47.5" fill="#E8EAF6"/>
<rect x="31" y="30" width="48" height="48" rx="24" fill="#536DFE"/>
<path d="M66.7625 48.8125C66.7625 49.075 66.7625 49.3375 66.7625 49.5625C66.7625 57.325 60.8375 66.2875 50.0375 66.2875C46.7 66.2875 43.625 65.3125 41 63.6625C41.45 63.7 41.9375 63.7375 42.3875 63.7375C45.125 63.7375 47.675 62.8 49.7 61.225C47.1125 61.1875 44.9375 59.4625 44.225 57.1375C44.6 57.2125 44.9375 57.25 45.35 57.25C45.875 57.25 46.4 57.175 46.8875 57.025C44.1875 56.5 42.1625 54.1375 42.1625 51.2875C42.1625 51.25 42.1625 51.25 42.1625 51.2125C42.95 51.6625 43.85 51.925 44.825 51.9625C43.25 50.9125 42.2 49.1125 42.2 47.05C42.2 45.9625 42.5 44.95 42.9875 44.0875C45.875 47.65 50.225 49.975 55.1 50.2375C54.9875 49.825 54.95 49.3375 54.95 48.8875C54.95 45.625 57.575 43 60.8375 43C62.525 43 64.0625 43.7125 65.1125 44.8375C66.4625 44.575 67.7 44.0875 68.8625 43.4125C68.4125 44.8 67.475 45.925 66.275 46.675C67.475 46.525 68.6 46.225 69.65 45.7375C68.9 46.9375 67.925 47.9875 66.7625 48.8125Z" fill="white"/>
</svg>
