<svg width="88" height="34" viewBox="0 0 88 34" fill="none" xmlns="http://www.w3.org/2000/svg">
<path d="M37.4812 12.3034V17H35.2848V4.35991H40.1204C41.5325 4.35991 42.6524 4.72742 43.4801 5.46245C44.3135 6.19747 44.7302 7.16979 44.7302 8.37939C44.7302 9.61793 44.3222 10.5816 43.5061 11.2703C42.6958 11.959 41.5586 12.3034 40.0943 12.3034H37.4812ZM37.4812 10.5411H40.1204C40.9017 10.5411 41.4978 10.3587 41.9087 9.99413C42.3197 9.62372 42.5251 9.09126 42.5251 8.39675C42.5251 7.71382 42.3168 7.16979 41.9001 6.76465C41.4833 6.35374 40.9104 6.14249 40.1811 6.13091H37.4812V10.5411ZM51.3714 9.53401C51.0936 9.48771 50.8071 9.46456 50.512 9.46456C49.5455 9.46456 48.8944 9.83497 48.5587 10.5758V17H46.4491V7.60675H48.4632L48.5153 8.6572C49.0246 7.84115 49.7307 7.43312 50.6335 7.43312C50.9345 7.43312 51.1833 7.47363 51.3801 7.55466L51.3714 9.53401ZM56.6671 17.1736C55.3301 17.1736 54.245 16.754 53.4116 15.9148C52.5839 15.0698 52.1701 13.947 52.1701 12.5465V12.286C52.1701 11.3484 52.3495 10.5121 52.7084 9.77709C53.073 9.03628 53.5823 8.46042 54.2363 8.0495C54.8903 7.63858 55.6195 7.43312 56.424 7.43312C57.7031 7.43312 58.6898 7.84115 59.3843 8.6572C60.0846 9.47324 60.4348 10.6279 60.4348 12.1211V12.9718H54.2971C54.3607 13.7474 54.6183 14.3609 55.0697 14.8123C55.5269 15.2637 56.0999 15.4894 56.7886 15.4894C57.7551 15.4894 58.5423 15.0988 59.15 14.3175L60.2872 15.4026C59.911 15.964 59.4075 16.401 58.7767 16.7135C58.1516 17.0203 57.4484 17.1736 56.6671 17.1736ZM56.4153 9.12599C55.8366 9.12599 55.3678 9.32856 55.0089 9.73369C54.6559 10.1388 54.4302 10.7031 54.3318 11.4266H58.3513V11.2703C58.305 10.5642 58.1169 10.0317 57.787 9.67292C57.4571 9.3083 56.9999 9.12599 56.4153 9.12599ZM67.3452 14.4477C67.3452 14.0715 67.1889 13.785 66.8764 13.5882C66.5696 13.3914 66.0574 13.2178 65.3398 13.0673C64.6221 12.9169 64.0231 12.7259 63.5427 12.4944C62.4894 11.9851 61.9627 11.2471 61.9627 10.2806C61.9627 9.47035 62.3042 8.7932 62.9871 8.24917C63.6701 7.70514 64.5382 7.43312 65.5915 7.43312C66.7143 7.43312 67.6201 7.71093 68.3088 8.26653C69.0033 8.82214 69.3506 9.5427 69.3506 10.4282H67.241C67.241 10.0231 67.0905 9.68739 66.7896 9.42116C66.4886 9.14914 66.0893 9.01313 65.5915 9.01313C65.1285 9.01313 64.7494 9.1202 64.4543 9.33434C64.1649 9.54848 64.0202 9.83497 64.0202 10.1938C64.0202 10.5179 64.1562 10.7697 64.4282 10.9491C64.7002 11.1285 65.2501 11.3108 66.0777 11.496C66.9053 11.6754 67.5535 11.8925 68.0223 12.1471C68.4969 12.396 68.8471 12.6969 69.0728 13.05C69.3043 13.403 69.42 13.8313 69.42 14.3348C69.42 15.1798 69.0699 15.8656 68.3696 16.3923C67.6693 16.9132 66.7519 17.1736 65.6176 17.1736C64.8478 17.1736 64.162 17.0347 63.5601 16.7569C62.9582 16.4791 62.4894 16.0971 62.1537 15.611C61.818 15.1248 61.6502 14.601 61.6502 14.0396H63.699C63.7279 14.5374 63.916 14.9223 64.2633 15.1943C64.6105 15.4605 65.0707 15.5936 65.6436 15.5936C66.1992 15.5936 66.6217 15.4894 66.9111 15.2811C67.2005 15.0669 67.3452 14.7891 67.3452 14.4477ZM73.9083 5.32355V7.60675H75.5664V9.1694H73.9083V14.4129C73.9083 14.7718 73.9777 15.0322 74.1166 15.1943C74.2613 15.3505 74.516 15.4287 74.8806 15.4287C75.1237 15.4287 75.3697 15.3997 75.6185 15.3419V16.974C75.1382 17.1071 74.6751 17.1736 74.2295 17.1736C72.609 17.1736 71.7987 16.2794 71.7987 14.4911V9.1694H70.2534V7.60675H71.7987V5.32355H73.9083ZM82.798 17C82.7054 16.8206 82.6244 16.5283 82.5549 16.1232C81.8836 16.8235 81.0617 17.1736 80.0894 17.1736C79.1461 17.1736 78.3763 16.9045 77.7802 16.3663C77.1841 15.828 76.886 15.1624 76.886 14.3695C76.886 13.3683 77.2564 12.6014 77.9972 12.069C78.7438 11.5307 79.8087 11.2616 81.192 11.2616H82.4855V10.6452C82.4855 10.1591 82.3495 9.77131 82.0775 9.48193C81.8055 9.18676 81.3916 9.03918 80.836 9.03918C80.3557 9.03918 79.9621 9.16072 79.6554 9.40379C79.3486 9.64108 79.1953 9.94493 79.1953 10.3153H77.0857C77.0857 9.80024 77.2564 9.31987 77.5979 8.87423C77.9393 8.4228 78.4024 8.06976 78.9869 7.8151C79.5772 7.56045 80.2341 7.43312 80.9576 7.43312C82.0572 7.43312 82.934 7.71093 83.588 8.26653C84.242 8.81635 84.5777 9.59189 84.5951 10.5931V14.8297C84.5951 15.6746 84.7137 16.3489 84.951 16.8524V17H82.798ZM80.4801 15.4808C80.8968 15.4808 81.2875 15.3795 81.6521 15.1769C82.0225 14.9743 82.3003 14.7023 82.4855 14.3609V12.5899H81.3482C80.5669 12.5899 79.9795 12.7259 79.5859 12.9979C79.1924 13.2699 78.9956 13.6548 78.9956 14.1525C78.9956 14.5576 79.1287 14.8817 79.3949 15.1248C79.6669 15.3621 80.0287 15.4808 80.4801 15.4808Z" fill="white"/>
<path d="M37.4812 26.3723V31.069H35.2848V18.4289H40.1204C41.5325 18.4289 42.6524 18.7964 43.4801 19.5314C44.3135 20.2664 44.7302 21.2388 44.7302 22.4484C44.7302 23.6869 44.3222 24.6505 43.5061 25.3393C42.6958 26.028 41.5586 26.3723 40.0943 26.3723H37.4812ZM37.4812 24.61H40.1204C40.9017 24.61 41.4978 24.4277 41.9087 24.0631C42.3197 23.6927 42.5251 23.1602 42.5251 22.4657C42.5251 21.7828 42.3168 21.2388 41.9001 20.8336C41.4833 20.4227 40.9104 20.2115 40.1811 20.1999H37.4812V24.61ZM51.9618 31.069C51.8692 30.8896 51.7881 30.5973 51.7187 30.1922C51.0473 30.8924 50.2255 31.2426 49.2532 31.2426C48.3098 31.2426 47.5401 30.9735 46.9439 30.4352C46.3478 29.897 46.0498 29.2314 46.0498 28.4385C46.0498 27.4373 46.4202 26.6704 47.161 26.1379C47.9076 25.5997 48.9725 25.3306 50.3557 25.3306H51.6492V24.7142C51.6492 24.228 51.5132 23.8403 51.2412 23.5509C50.9692 23.2557 50.5554 23.1081 49.9998 23.1081C49.5194 23.1081 49.1259 23.2297 48.8191 23.4728C48.5124 23.7101 48.359 24.0139 48.359 24.3843H46.2494C46.2494 23.8692 46.4202 23.3888 46.7616 22.9432C47.1031 22.4918 47.5661 22.1387 48.1506 21.8841C48.741 21.6294 49.3979 21.5021 50.1213 21.5021C51.221 21.5021 52.0978 21.7799 52.7518 22.3355C53.4058 22.8853 53.7415 23.6609 53.7588 24.6621V28.8986C53.7588 29.7436 53.8775 30.4179 54.1148 30.9214V31.069H51.9618ZM49.6438 29.5497C50.0605 29.5497 50.4512 29.4484 50.8158 29.2459C51.1862 29.0433 51.464 28.7713 51.6492 28.4298V26.6588H50.512C49.7307 26.6588 49.1432 26.7948 48.7497 27.0669C48.3561 27.3389 48.1593 27.7237 48.1593 28.2215C48.1593 28.6266 48.2924 28.9507 48.5587 29.1938C48.8307 29.4311 49.1924 29.5497 49.6438 29.5497ZM61.2335 28.5166C61.2335 28.1405 61.0772 27.854 60.7647 27.6572C60.4579 27.4604 59.9457 27.2868 59.2281 27.1363C58.5104 26.9858 57.9114 26.7948 57.431 26.5633C56.3777 26.054 55.851 25.3161 55.851 24.3496C55.851 23.5393 56.1925 22.8622 56.8754 22.3181C57.5584 21.7741 58.4265 21.5021 59.4798 21.5021C60.6026 21.5021 61.5084 21.7799 62.1971 22.3355C62.8916 22.8911 63.2389 23.6117 63.2389 24.4972H61.1293C61.1293 24.092 60.9788 23.7564 60.6779 23.4901C60.3769 23.2181 59.9776 23.0821 59.4798 23.0821C59.0168 23.0821 58.6378 23.1892 58.3426 23.4033C58.0532 23.6175 57.9085 23.9039 57.9085 24.2628C57.9085 24.5869 58.0445 24.8386 58.3165 25.018C58.5886 25.1975 59.1384 25.3798 59.966 25.565C60.7936 25.7444 61.4418 25.9614 61.9106 26.2161C62.3852 26.4649 62.7354 26.7659 62.9611 27.1189C63.1926 27.472 63.3083 27.9003 63.3083 28.4038C63.3083 29.2488 62.9582 29.9346 62.2579 30.4613C61.5576 30.9822 60.6403 31.2426 59.5059 31.2426C58.7361 31.2426 58.0503 31.1037 57.4484 30.8259C56.8465 30.5481 56.3777 30.1661 56.042 29.6799C55.7063 29.1938 55.5385 28.67 55.5385 28.1086H57.5873C57.6162 28.6064 57.8043 28.9912 58.1516 29.2632C58.4988 29.5295 58.959 29.6626 59.5319 29.6626C60.0875 29.6626 60.51 29.5584 60.7994 29.3501C61.0888 29.1359 61.2335 28.8581 61.2335 28.5166ZM67.7966 19.3925V21.6757H69.4547V23.2384H67.7966V28.4819C67.7966 28.8407 67.8661 29.1012 68.005 29.2632C68.1496 29.4195 68.4043 29.4976 68.7689 29.4976C69.012 29.4976 69.258 29.4687 69.5068 29.4108V31.0429C69.0265 31.176 68.5635 31.2426 68.1178 31.2426C66.4973 31.2426 65.687 30.3484 65.687 28.5601V23.2384H64.1417V21.6757H65.687V19.3925H67.7966ZM76.6863 31.069C76.5937 30.8896 76.5127 30.5973 76.4433 30.1922C75.7719 30.8924 74.9501 31.2426 73.9777 31.2426C73.0344 31.2426 72.2646 30.9735 71.6685 30.4352C71.0724 29.897 70.7743 29.2314 70.7743 28.4385C70.7743 27.4373 71.1447 26.6704 71.8855 26.1379C72.6321 25.5997 73.6971 25.3306 75.0803 25.3306H76.3738V24.7142C76.3738 24.228 76.2378 23.8403 75.9658 23.5509C75.6938 23.2557 75.28 23.1081 74.7243 23.1081C74.244 23.1081 73.8504 23.2297 73.5437 23.4728C73.2369 23.7101 73.0836 24.0139 73.0836 24.3843H70.974C70.974 23.8692 71.1447 23.3888 71.4862 22.9432C71.8277 22.4918 72.2907 22.1387 72.8752 21.8841C73.4655 21.6294 74.1224 21.5021 74.8459 21.5021C75.9455 21.5021 76.8223 21.7799 77.4763 22.3355C78.1303 22.8853 78.466 23.6609 78.4834 24.6621V28.8986C78.4834 29.7436 78.602 30.4179 78.8393 30.9214V31.069H76.6863ZM74.3684 29.5497C74.7851 29.5497 75.1758 29.4484 75.5404 29.2459C75.9108 29.0433 76.1886 28.7713 76.3738 28.4298V26.6588H75.2365C74.4552 26.6588 73.8678 26.7948 73.4742 27.0669C73.0807 27.3389 72.8839 27.7237 72.8839 28.2215C72.8839 28.6266 73.017 28.9507 73.2832 29.1938C73.5553 29.4311 73.917 29.5497 74.3684 29.5497Z" fill="white"/>
<path d="M30.1571 17.5211C30.1571 16.7657 29.5447 16.1533 28.7893 16.1533C28.0339 16.1533 27.4215 16.7657 27.4215 17.5211H30.1571ZM23.8403 7.62072L23.0187 8.71428L23.8403 7.62072ZM26.3142 10.0946L25.2206 10.9162L25.2773 10.9917L25.3438 11.0586L26.3142 10.0946ZM28.5944 3.90198C28.5911 3.14656 27.976 2.53691 27.2205 2.54028C26.4651 2.54365 25.8555 3.15877 25.8588 3.91418L28.5944 3.90198ZM27.2376 6.36549L28.6054 6.35939V6.35939L27.2376 6.36549ZM22.6834 10.9197L22.6773 12.2875L22.6834 10.9197ZM20.2321 9.54091C19.4767 9.53754 18.8616 10.1472 18.8582 10.9026C18.8548 11.658 19.4645 12.2731 20.2199 12.2765L20.2321 9.54091ZM26.732 9.97537L27.8137 10.8125L27.8137 10.8125L26.732 9.97537ZM26.2933 10.4141L27.1304 11.4958L27.1304 11.4958L26.2933 10.4141ZM19.8294 15.1763C20.5849 15.1763 21.1973 14.5639 21.1973 13.8085C21.1973 13.053 20.5849 12.4406 19.8294 12.4406V15.1763ZM12.7012 22.341C11.9457 22.341 11.3334 22.9534 11.3334 23.7088C11.3334 24.4643 11.9457 25.0767 12.7012 25.0767V22.341ZM27.4215 17.5211C27.4215 23.6005 22.4932 28.5288 16.4138 28.5288V31.2644C24.004 31.2644 30.1571 25.1113 30.1571 17.5211H27.4215ZM16.4138 28.5288C10.3344 28.5288 5.40615 23.6005 5.40615 17.5211H2.67051C2.67051 25.1113 8.8236 31.2644 16.4138 31.2644V28.5288ZM5.40615 17.5211C5.40615 11.4417 10.3344 6.51344 16.4138 6.51344V3.77781C8.8236 3.77781 2.67051 9.9309 2.67051 17.5211H5.40615ZM16.4138 6.51344C18.8939 6.51344 21.1789 7.33201 23.0187 8.71428L24.6619 6.52716C22.3646 4.80116 19.5067 3.77781 16.4138 3.77781V6.51344ZM23.0187 8.71428C23.8523 9.34061 24.5943 10.0826 25.2206 10.9162L27.4078 9.273C26.6266 8.23336 25.7016 7.30827 24.6619 6.52716L23.0187 8.71428ZM25.8588 3.91418L25.8698 6.3716L28.6054 6.35939L28.5944 3.90198L25.8588 3.91418ZM22.6895 9.55187L20.2321 9.54091L20.2199 12.2765L22.6773 12.2875L22.6895 9.55187ZM25.8698 6.3716C25.8743 7.38363 25.8751 8.02707 25.8229 8.5055C25.7736 8.95641 25.6919 9.08447 25.6503 9.13823L27.8137 10.8125C28.2908 10.196 28.4663 9.499 28.5423 8.80248C28.6154 8.13347 28.6096 7.3071 28.6054 6.35939L25.8698 6.3716ZM22.6773 12.2875C23.625 12.2917 24.4514 12.2975 25.1204 12.2244C25.8169 12.1483 26.5139 11.9729 27.1304 11.4958L25.4562 9.33235C25.4024 9.37396 25.2743 9.4557 24.8234 9.50494C24.345 9.55718 23.7016 9.55639 22.6895 9.55187L22.6773 12.2875ZM19.8294 12.4406H15.1763V15.1763H19.8294V12.4406ZM11.3334 16.2836V17.5211H14.069V16.2836H11.3334ZM13.9387 20.1265H18.8889V17.3908H13.9387V20.1265ZM18.7586 19.9962V21.2338H21.4943V19.9962H18.7586ZM17.6514 22.341H12.7012V25.0767H17.6514V22.341ZM18.7586 21.2338C18.7586 21.8453 18.2629 22.341 17.6514 22.341V25.0767C19.7737 25.0767 21.4943 23.3561 21.4943 21.2338H18.7586ZM18.8889 20.1265C18.817 20.1265 18.7586 20.0681 18.7586 19.9962H21.4943C21.4943 18.5573 20.3278 17.3908 18.8889 17.3908V20.1265ZM11.3334 17.5211C11.3334 18.96 12.4998 20.1265 13.9387 20.1265V17.3908C14.0107 17.3908 14.069 17.4492 14.069 17.5211H11.3334ZM15.1763 12.4406C13.0539 12.4406 11.3334 14.1612 11.3334 16.2836H14.069C14.069 15.672 14.5647 15.1763 15.1763 15.1763V12.4406ZM25.6503 9.13823C25.6158 9.18279 25.578 9.22454 25.5371 9.26313L27.4152 11.2522C27.5591 11.1163 27.6924 10.9693 27.8137 10.8125L25.6503 9.13823ZM25.5371 9.26313C25.5113 9.28749 25.4843 9.3106 25.4562 9.33236L27.1304 11.4958C27.2294 11.4192 27.3244 11.3379 27.4152 11.2522L25.5371 9.26313ZM25.3438 11.0586L25.5058 11.2217L27.4465 9.29363L27.2846 9.1306L25.3438 11.0586Z" fill="white"/>
<path d="M16.4138 10.7471V25.7931" stroke="white" stroke-width="1.36782" stroke-linecap="round"/>
</svg>
